<svg width="156" height="42" viewBox="0 0 156 42" fill="none" xmlns="http://www.w3.org/2000/svg">
<g clip-path="url(#clip0_85_682)">
<path fill-rule="evenodd" clip-rule="evenodd" d="M47.4807 29.9397C46.9131 29.7234 46.5416 29.2653 46.5416 28.6545C46.5416 27.9151 47.1524 27.3056 47.8955 27.3056C48.1144 27.3056 48.29 27.3489 48.4427 27.4138C49.4562 27.8811 50.5602 28.1192 51.6762 28.1111C53.9502 28.1111 55.0204 27.0231 55.0204 24.9311V24.3648C54.0367 25.5419 52.9665 26.2609 51.1964 26.2609C48.4643 26.2609 45.9944 24.2783 45.9944 20.8145V20.7725C45.9944 17.2871 48.5076 15.3274 51.1964 15.3274C53.0098 15.3274 54.08 16.0909 54.9758 17.0707V17.0478C54.9758 16.1545 55.719 15.4152 56.6377 15.4152C57.5539 15.4152 58.2971 16.1545 58.2971 17.0695V24.5837C58.2971 26.6744 57.7957 28.1976 56.8121 29.1775C55.719 30.268 54.0367 30.7465 51.764 30.7465C50.2973 30.7593 48.8422 30.4853 47.4807 29.9397V29.9397ZM55.0204 20.8157V20.7725C55.0204 19.1818 53.7733 18.0709 52.1572 18.0709C50.5411 18.0709 49.3169 19.1818 49.3169 20.7725V20.8157C49.3169 22.4268 50.5411 23.516 52.1572 23.516C53.7733 23.516 55.0204 22.4051 55.0204 20.8157V20.8157ZM60.1779 17.0695C60.1779 16.1545 60.921 15.4152 61.8385 15.4152C62.7573 15.4152 63.4991 16.1545 63.4991 17.0695V17.5912C63.9802 16.4599 64.7666 15.4152 65.7515 15.4152C66.7784 15.4152 67.3676 16.0896 67.3676 17.0262C67.3676 17.8966 66.8001 18.4196 66.1218 18.5723C64.4395 18.9655 63.5004 20.2495 63.5004 22.6011V25.6933C63.5004 26.6082 62.7573 27.3489 61.8385 27.3489C61.6208 27.3494 61.4052 27.307 61.2039 27.2241C61.0026 27.1412 60.8196 27.0195 60.6654 26.8658C60.5112 26.7122 60.3887 26.5297 60.3051 26.3287C60.2214 26.1277 60.1782 25.9123 60.1779 25.6946V17.0695V17.0695ZM66.9744 23.8647V23.8214C66.9744 21.2726 68.9188 20.0968 71.6954 20.0968C72.8751 20.0968 73.7276 20.2927 74.5586 20.5752V20.3793C74.5586 19.0088 73.706 18.2453 72.0454 18.2453C71.268 18.237 70.4939 18.3472 69.7497 18.5723C69.5961 18.6292 69.4338 18.6589 69.27 18.6601C69.0904 18.6635 68.9119 18.631 68.745 18.5646C68.5781 18.4982 68.4261 18.3992 68.2979 18.2734C68.1697 18.1476 68.0679 17.9974 67.9984 17.8318C67.9289 17.6662 67.8931 17.4883 67.8931 17.3087C67.8931 16.7208 68.2622 16.2207 68.789 16.0235C69.8376 15.6315 70.9739 15.4152 72.5251 15.4152C74.3384 15.4152 75.6504 15.8937 76.4801 16.7208C77.3543 17.5912 77.7488 18.8777 77.7488 20.4454V25.7582C77.7488 26.6515 77.0273 27.3489 76.1314 27.3489C75.1694 27.3489 74.5357 26.6744 74.5357 25.9771V25.9542C73.7276 26.8475 72.6142 27.4354 70.9955 27.4354C68.789 27.4354 66.9744 26.173 66.9744 23.8647V23.8647ZM74.6019 23.1012V22.5146C73.9339 22.221 73.2114 22.0723 72.4818 22.0781C71.0604 22.0781 70.1875 22.6444 70.1875 23.6904V23.7336C70.1875 24.6269 70.9306 25.1499 72.0008 25.1499C73.5533 25.1499 74.6019 24.2999 74.6019 23.1012ZM79.5189 17.0695C79.5189 16.1545 80.262 15.4152 81.1808 15.4152C82.0983 15.4152 82.8414 16.1545 82.8414 17.0695V17.2005C83.6049 16.2207 84.6115 15.3274 86.2938 15.3274C87.8233 15.3274 88.9813 16.0018 89.5934 17.1789C90.6203 15.9815 91.8457 15.3274 93.4389 15.3274C95.9089 15.3274 97.3965 16.8086 97.3965 19.6183V25.6933C97.3965 26.6082 96.652 27.3489 95.7346 27.3489C95.5168 27.3494 95.3011 27.307 95.0997 27.2241C94.8984 27.1412 94.7153 27.0195 94.561 26.8659C94.4067 26.7123 94.2841 26.5298 94.2003 26.3288C94.1165 26.1278 94.0732 25.9123 94.0727 25.6946V20.7063C94.0727 19.1386 93.3728 18.3331 92.1282 18.3331C90.8825 18.3331 90.1177 19.1386 90.1177 20.7063V25.6946C90.1177 26.6082 89.3758 27.3489 88.457 27.3489C88.0175 27.3495 87.5957 27.1757 87.2843 26.8655C86.9729 26.5553 86.7974 26.1341 86.7964 25.6946V20.7063C86.7964 19.1386 86.0965 18.3331 84.852 18.3331C83.6049 18.3331 82.8414 19.1386 82.8414 20.7063V25.6946C82.8414 26.6082 82.0983 27.3489 81.1808 27.3489C80.963 27.3495 80.7472 27.3072 80.5458 27.2244C80.3443 27.1416 80.1612 27.0199 80.0068 26.8663C79.8525 26.7126 79.7299 26.5301 79.6462 26.329C79.5625 26.128 79.5192 25.9124 79.5189 25.6946V17.0695V17.0695ZM99.1882 17.0695C99.1882 16.1545 99.9313 15.4152 100.849 15.4152C101.768 15.4152 102.511 16.1545 102.511 17.0695V17.2005C103.274 16.2207 104.28 15.3274 105.963 15.3274C107.493 15.3274 108.651 16.0018 109.263 17.1789C110.29 15.9815 111.514 15.3274 113.108 15.3274C115.578 15.3274 117.065 16.8086 117.065 19.6183V25.6933C117.065 26.6082 116.321 27.3489 115.403 27.3489C114.963 27.3495 114.541 27.1757 114.23 26.8655C113.918 26.5553 113.743 26.1341 113.742 25.6946V20.7063C113.742 19.1386 113.042 18.3331 111.798 18.3331C110.55 18.3331 109.787 19.1386 109.787 20.7063V25.6946C109.787 26.6082 109.044 27.3489 108.126 27.3489C107.909 27.3494 107.693 27.307 107.492 27.2241C107.29 27.1412 107.107 27.0195 106.953 26.8658C106.799 26.7122 106.677 26.5297 106.593 26.3287C106.509 26.1277 106.466 25.9123 106.466 25.6946V20.7063C106.466 19.1386 105.766 18.3331 104.52 18.3331C103.274 18.3331 102.509 19.1386 102.509 20.7063V25.6946C102.509 26.6082 101.768 27.3489 100.849 27.3489C100.631 27.3494 100.415 27.307 100.214 27.2241C100.013 27.1412 99.8299 27.0195 99.6757 26.8658C99.5215 26.7122 99.399 26.5297 99.3154 26.3287C99.2317 26.1277 99.1885 25.9123 99.1882 25.6946V17.0695V17.0695ZM118.158 23.8647V23.8214C118.158 21.2726 120.103 20.0968 122.879 20.0968C123.853 20.088 124.822 20.2499 125.741 20.5752V20.3793C125.741 19.0088 124.888 18.2453 123.227 18.2453C122.31 18.2453 121.567 18.3763 120.933 18.5723C120.779 18.6292 120.617 18.6589 120.453 18.6601C120.273 18.6638 120.095 18.6316 119.928 18.5654C119.761 18.4991 119.608 18.4001 119.48 18.2742C119.352 18.1484 119.25 17.9981 119.18 17.8323C119.111 17.6665 119.075 17.4885 119.075 17.3087C119.075 16.7208 119.448 16.2207 119.971 16.0235C121.021 15.6315 122.157 15.4152 123.708 15.4152C125.523 15.4152 126.834 15.8937 127.663 16.7208C128.538 17.5912 128.931 18.8777 128.931 20.4454V25.7582C128.931 25.9693 128.889 26.1782 128.807 26.3729C128.726 26.5675 128.606 26.744 128.456 26.8921C128.305 27.0401 128.127 27.1567 127.931 27.2352C127.735 27.3136 127.526 27.3522 127.315 27.3489C126.353 27.3489 125.719 26.6744 125.719 25.9771V25.9542C124.911 26.8475 123.795 27.4354 122.179 27.4354C119.971 27.4354 118.158 26.173 118.158 23.8647V23.8647ZM125.785 23.1012V22.5146C125.117 22.2211 124.395 22.0724 123.665 22.0781C122.244 22.0781 121.371 22.6444 121.371 23.6904V23.7336C121.371 24.6269 122.113 25.1499 123.184 25.1499C124.735 25.1499 125.785 24.2999 125.785 23.1012ZM130.702 17.0695C130.702 16.1545 131.445 15.4152 132.363 15.4152C133.281 15.4152 134.023 16.1545 134.023 17.0695V17.5912C134.504 16.4599 135.291 15.4152 136.276 15.4152C137.301 15.4152 137.892 16.0896 137.892 17.0262C137.892 17.8966 137.323 18.4196 136.646 18.5723C134.964 18.9655 134.023 20.2495 134.023 22.6011V25.6933C134.023 26.6082 133.281 27.3489 132.363 27.3489C131.923 27.3495 131.501 27.1757 131.19 26.8655C130.879 26.5553 130.703 26.1341 130.702 25.6946V17.0695V17.0695ZM138.897 12.8447C138.897 11.9285 139.64 11.1904 140.558 11.1904C141.476 11.1904 142.22 11.9285 142.22 12.8447V25.6933C142.22 26.6082 141.476 27.3489 140.558 27.3489C140.118 27.3495 139.696 27.1757 139.385 26.8655C139.074 26.5553 138.898 26.1341 138.897 25.6946V12.8434V12.8447ZM144.864 30.4627C144.383 30.2896 143.814 29.8964 143.814 29.0922C143.81 28.917 143.842 28.7429 143.906 28.5798C143.97 28.4167 144.066 28.268 144.188 28.1423C144.31 28.0166 144.456 27.9164 144.617 27.8474C144.778 27.7785 144.951 27.7423 145.126 27.7408C145.388 27.7408 145.541 27.7841 145.672 27.8286C145.956 27.9151 146.131 27.9597 146.372 27.9597C146.961 27.9597 147.246 27.8502 147.551 27.2623L147.661 27.0002L143.663 17.7668C143.563 17.5236 143.503 17.2657 143.487 17.0033C143.487 16.068 144.209 15.4152 145.126 15.4152C145.956 15.4152 146.437 15.872 146.721 16.6559L149.257 23.4511L151.704 16.6775C151.966 15.9815 152.446 15.4152 153.299 15.4152C154.151 15.4152 154.871 16.068 154.871 16.9397C154.871 17.2005 154.784 17.5708 154.72 17.7235L150.632 27.5016C149.649 29.8748 148.666 30.7681 146.677 30.7681C145.934 30.7681 145.41 30.6599 144.864 30.4627Z" fill="white"/>
<path fill-rule="evenodd" clip-rule="evenodd" d="M36.8028 21.3683C36.8028 31.3576 28.6765 39.4559 18.6529 39.4559C8.62923 39.4559 0.50293 31.3576 0.50293 21.3683C0.50293 11.3791 8.62923 3.28076 18.6529 3.28076C28.6765 3.28076 36.8028 11.3791 36.8028 21.3683Z" fill="white"/>
<path fill-rule="evenodd" clip-rule="evenodd" d="M21.0251 25.2741C21.132 25.8659 21.6907 26.2718 22.2951 26.2718H24.1963L25.2983 26.1191C23.5346 28.6972 20.4729 29.8832 17.1249 29.3602C14.3991 28.9339 12.0577 27.0951 11.069 24.5284C8.82679 18.7016 13.0961 13.1394 18.6608 13.1394C21.5609 13.1394 24.1034 14.8306 25.5617 16.873C25.9485 17.4291 26.7171 17.6327 27.2758 17.2471C27.5295 17.0752 27.7085 16.8134 27.7766 16.5145C27.8446 16.2157 27.7966 15.9021 27.6422 15.6374C26.6087 14.0278 25.161 12.726 23.4512 11.8684C21.7413 11.0109 19.8322 10.6293 17.924 10.7636C12.6176 11.1186 8.32288 15.4465 8.01747 20.7376C7.66371 26.8966 12.5642 31.923 18.6608 31.923C20.1809 31.9293 21.6845 31.6075 23.0689 30.9797C24.4534 30.3518 25.686 29.4326 26.6828 28.2849L26.4512 29.5752V30.7409C26.4512 31.3415 26.8584 31.8989 27.4526 32.0057C27.6301 32.0392 27.8127 32.0331 27.9875 31.9881C28.1623 31.943 28.3251 31.8601 28.4643 31.7451C28.6034 31.63 28.7156 31.4858 28.7928 31.3226C28.87 31.1594 28.9103 30.9812 28.9109 30.8007V23.8196H22.234C22.0534 23.8194 21.875 23.8589 21.7114 23.9355C21.5478 24.0121 21.4031 24.1238 21.2877 24.2627C21.1722 24.4016 21.0888 24.5643 21.0435 24.7391C20.9981 24.9139 20.9918 25.0966 21.0251 25.2741V25.2741Z" fill="black"/>
</g>
<defs>
<clipPath id="clip0_85_682">
<rect width="155.036" height="41.343" fill="white" transform="translate(0.50293 0.328125)"/>
</clipPath>
</defs>
</svg>
