<svg width="110" height="42" viewBox="0 0 110 42" fill="none" xmlns="http://www.w3.org/2000/svg">
<g clip-path="url(#clip0_85_675)">
<path fill-rule="evenodd" clip-rule="evenodd" d="M106.459 27.8732C106.524 28.6221 107.123 29.5754 108.162 29.5754H108.769C109.004 29.5754 109.197 29.3825 109.197 29.1469V15.7917H109.194C109.183 15.5667 108.997 15.3865 108.769 15.3865H106.887C106.659 15.3865 106.473 15.5667 106.462 15.7917H106.459V16.8769C105.306 15.4558 103.488 14.8659 101.666 14.8659C97.5224 14.8659 94.1638 18.2272 94.1638 22.3737C94.1638 26.5205 97.5224 29.8818 101.666 29.8818C103.488 29.8818 105.475 29.1744 106.459 27.8715V27.8732ZM101.673 27.2542C99.0377 27.2542 96.9016 25.0693 96.9016 22.3737C96.9016 19.6786 99.0377 17.4936 101.673 17.4936C104.308 17.4936 106.444 19.6786 106.444 22.3737C106.444 25.0693 104.308 27.2542 101.673 27.2542Z" fill="white"/>
<path fill-rule="evenodd" clip-rule="evenodd" d="M91.7842 21.4217C91.7842 17.5261 89.3287 14.8981 85.4128 14.8981C83.5434 14.8981 82.0111 15.9799 81.4698 16.9092C81.3528 16.1825 80.9674 15.4188 79.772 15.4188H79.1628C78.9271 15.4188 78.7346 15.6118 78.7346 15.8474V27.9066C78.7346 27.907 78.7346 27.9079 78.7346 27.9084V29.2038H78.737C78.7493 29.4285 78.9354 29.6089 79.163 29.6089H81.0446C81.0734 29.6089 81.1017 29.6054 81.129 29.6001C81.1414 29.5977 81.153 29.5928 81.1651 29.5894C81.1791 29.5851 81.1937 29.5817 81.207 29.5763C81.2237 29.5693 81.2389 29.56 81.2545 29.5513C81.2621 29.5466 81.2701 29.5434 81.2775 29.5385C81.2963 29.5263 81.3135 29.5118 81.3301 29.4969C81.3329 29.4941 81.3361 29.4923 81.3388 29.4897C81.3575 29.4716 81.3747 29.4517 81.3897 29.4309C81.4368 29.3662 81.4656 29.2879 81.4703 29.2038H81.4727V21.3145C81.4727 19.2223 83.1677 17.5261 85.2584 17.5261C87.3491 17.5261 89.0441 19.2223 89.0441 21.3145L89.0457 27.9089L89.0462 27.9066C89.0462 27.9125 89.0471 27.9184 89.0471 27.9247V29.2038H89.0497C89.0621 29.4285 89.248 29.6089 89.4754 29.6089H91.3572C91.3862 29.6089 91.4143 29.6054 91.4415 29.6001C91.4526 29.5981 91.4629 29.5936 91.4739 29.5905C91.4892 29.586 91.5051 29.5822 91.5199 29.5763C91.5352 29.5699 91.5492 29.561 91.5638 29.5528C91.5727 29.5478 91.582 29.5442 91.5905 29.5385C91.6079 29.527 91.6238 29.5132 91.6395 29.4996C91.6434 29.4959 91.6479 29.4932 91.6516 29.4894C91.6695 29.4722 91.6854 29.4536 91.6999 29.4341C91.7009 29.4327 91.7021 29.4315 91.7032 29.43C91.7496 29.3659 91.778 29.2885 91.7829 29.2049C91.7829 29.2043 91.7831 29.2038 91.7831 29.2038H91.7856L91.7842 21.4217Z" fill="white"/>
<path fill-rule="evenodd" clip-rule="evenodd" d="M72.1881 27.8731C72.2538 28.6221 72.8529 29.5754 73.8908 29.5754H74.498C74.7334 29.5754 74.9261 29.3825 74.9261 29.1469V15.7917H74.9237C74.9115 15.5667 74.7253 15.3865 74.498 15.3865H72.6164C72.3888 15.3865 72.2029 15.5667 72.1902 15.7917H72.1881V16.8769C71.0351 15.4558 69.2174 14.8659 67.3947 14.8659C63.2515 14.8659 59.893 18.2272 59.893 22.3737C59.893 26.5205 63.2515 29.8818 67.3947 29.8818C69.2174 29.8818 71.2039 29.1745 72.1879 27.8715L72.1881 27.8731ZM67.402 27.2542C64.7672 27.2542 62.6309 25.0694 62.6309 22.3737C62.6309 19.6786 64.7672 17.4936 67.402 17.4936C70.0371 17.4936 72.173 19.6786 72.173 22.3737C72.173 25.0694 70.0371 27.2542 67.402 27.2542Z" fill="white"/>
<path fill-rule="evenodd" clip-rule="evenodd" d="M48.7656 25.9604C50.0217 26.8313 51.3929 27.2543 52.7105 27.2543C53.9657 27.2543 55.2635 26.6031 55.2635 25.4695C55.2635 23.9561 52.4357 23.7206 50.6591 23.1163C48.882 22.512 47.3515 21.2628 47.3515 19.2398C47.3515 16.1442 50.1076 14.8657 52.68 14.8657C54.3099 14.8657 55.9915 15.4036 57.0817 16.1741C57.4572 16.4588 57.2285 16.7857 57.2285 16.7857L56.1878 18.2732C56.0709 18.4408 55.8663 18.5855 55.5728 18.4042C55.2791 18.223 54.2494 17.4935 52.68 17.4935C51.1105 17.4935 50.1651 18.2189 50.1651 19.1179C50.1651 20.1961 51.3938 20.5351 52.833 20.9026C55.3411 21.5792 58.077 22.3924 58.077 25.4695C58.077 28.1969 55.5278 29.8824 52.7105 29.8824C50.5755 29.8824 48.7577 29.2733 47.2332 28.1537C46.9156 27.8356 47.1374 27.5402 47.1374 27.5402L48.173 26.0602C48.3837 25.7835 48.6494 25.8801 48.7656 25.9604Z" fill="white"/>
<path fill-rule="evenodd" clip-rule="evenodd" d="M41.5317 27.8731C41.5974 28.6221 42.1965 29.5754 43.2343 29.5754H43.8416C44.077 29.5754 44.2699 29.3825 44.2699 29.1469V15.7917H44.2673C44.255 15.5667 44.0691 15.3865 43.8416 15.3865H41.96C41.7324 15.3865 41.5465 15.5667 41.5339 15.7917H41.5317V16.8769C40.3788 15.4558 38.5611 14.8659 36.7384 14.8659C32.5953 14.8659 29.2365 18.2272 29.2365 22.3737C29.2365 26.5205 32.5953 29.8818 36.7384 29.8818C38.5611 29.8818 40.5475 29.1745 41.5314 27.8715L41.5317 27.8731ZM36.7457 27.2542C34.1107 27.2542 31.9745 25.0694 31.9745 22.3737C31.9745 19.6786 34.1107 17.4936 36.7457 17.4936C39.3806 17.4936 41.5166 19.6786 41.5166 22.3737C41.5166 25.0694 39.3806 27.2542 36.7457 27.2542Z" fill="white"/>
<path fill-rule="evenodd" clip-rule="evenodd" d="M18.7193 22.8844C15.9311 22.8844 13.6708 25.1447 13.6708 27.9331C13.6708 30.7213 15.9311 32.9816 18.7193 32.9816C21.5075 32.9816 23.7677 30.7213 23.7677 27.9331C23.7677 25.1447 21.5075 22.8844 18.7193 22.8844ZM5.60301 22.8849C2.81486 22.8849 0.554565 25.1447 0.554565 27.9331C0.554565 30.7213 2.81486 32.9816 5.60301 32.9816C8.39129 32.9816 10.6517 30.7213 10.6517 27.9331C10.6517 25.1447 8.39129 22.8849 5.60301 22.8849ZM17.2095 16.5737C17.2095 19.3621 14.9494 21.6226 12.1611 21.6226C9.37289 21.6226 7.11272 19.3621 7.11272 16.5737C7.11272 13.7859 9.37289 11.5254 12.1611 11.5254C14.9494 11.5254 17.2095 13.7859 17.2095 16.5737Z" fill="white"/>
</g>
<defs>
<clipPath id="clip0_85_675">
<rect width="109.387" height="41.343" fill="white" transform="translate(0.554565 0.328125)"/>
</clipPath>
</defs>
</svg>
