<svg width="149" height="42" viewBox="0 0 149 42" fill="none" xmlns="http://www.w3.org/2000/svg">
<g clip-path="url(#clip0_85_678)">
<path d="M32.0449 9.64949C29.6681 8.53743 27.1267 7.72924 24.4697 7.26904C24.1434 7.859 23.7622 8.65249 23.4993 9.28372C20.6749 8.85896 17.8765 8.85896 15.104 9.28372C14.8412 8.65249 14.4513 7.859 14.1221 7.26904C11.4622 7.72924 8.9179 8.5404 6.54107 9.65538C1.747 16.8998 0.44741 23.9644 1.09721 30.9286C4.27689 33.3031 7.35838 34.7455 10.3879 35.6894C11.1359 34.66 11.803 33.5656 12.3777 32.4123C11.2831 31.9964 10.2348 31.4832 9.24426 30.8873C9.50704 30.6926 9.76409 30.4891 10.0124 30.2797C16.0541 33.1055 22.6185 33.1055 28.588 30.2797C28.8393 30.4891 29.0963 30.6926 29.3562 30.8873C28.3627 31.4861 27.3115 31.9993 26.217 32.4153C26.7917 33.5656 27.4559 34.6629 28.2068 35.6924C31.2392 34.7485 34.3235 33.3061 37.5032 30.9286C38.2657 22.8553 36.2008 15.8556 32.0449 9.64949ZM13.2008 26.6457C11.3871 26.6457 9.89979 24.9525 9.89979 22.8907C9.89979 20.8288 11.3554 19.1328 13.2008 19.1328C15.0462 19.1328 16.5335 20.8259 16.5018 22.8907C16.5046 24.9525 15.0462 26.6457 13.2008 26.6457ZM25.3997 26.6457C23.586 26.6457 22.0987 24.9525 22.0987 22.8907C22.0987 20.8288 23.5542 19.1328 25.3997 19.1328C27.2451 19.1328 28.7324 20.8259 28.7006 22.8907C28.7006 24.9525 27.2451 26.6457 25.3997 26.6457Z" fill="white"/>
<path d="M50.2822 14.5201H58.1662C60.0668 14.5201 61.6724 14.8239 62.9896 15.4286C64.3033 16.0332 65.2883 16.8768 65.9411 17.9564C66.5934 19.036 66.9226 20.2719 66.9226 21.6642C66.9226 23.027 66.5819 24.2629 65.9004 25.369C65.2189 26.4781 64.182 27.3542 62.7873 28.0002C61.3925 28.6461 59.6651 28.9706 57.6005 28.9706H50.2822V14.5201ZM57.5194 25.2982C58.7989 25.2982 59.7839 24.9708 60.4709 24.3189C61.1585 23.6641 61.5023 22.7733 61.5023 21.6436C61.5023 20.5964 61.1957 19.7616 60.5837 19.1363C59.9716 18.511 59.0445 18.1954 57.8053 18.1954H55.339V25.2982H57.5194Z" fill="white"/>
<path d="M78.7261 28.953C77.6343 28.6639 76.6493 28.2451 75.7745 27.6935V24.2659C76.4359 24.788 77.3223 25.2187 78.4341 25.5579C79.546 25.8942 80.6206 26.0623 81.66 26.0623C82.1452 26.0623 82.5121 25.9974 82.7602 25.8676C83.0089 25.7378 83.1332 25.5815 83.1332 25.4015C83.1332 25.1951 83.0668 25.024 82.9309 24.8853C82.795 24.7467 82.5322 24.6317 82.1426 24.5343L79.7166 23.9768C78.3274 23.6465 77.3424 23.1893 76.7565 22.6023C76.1702 22.0182 75.8782 21.2513 75.8782 20.3015C75.8782 19.5021 76.1324 18.809 76.6468 18.2161C77.1577 17.6232 77.8855 17.166 78.8297 16.8444C79.7745 16.52 80.8773 16.3578 82.1452 16.3578C83.2772 16.3578 84.314 16.4816 85.2588 16.7294C86.203 16.9772 86.9827 17.2928 87.6038 17.6792V20.921C86.9681 20.5345 86.2403 20.2307 85.4088 20.0006C84.5798 19.7735 83.7281 19.6614 82.8498 19.6614C81.5819 19.6614 80.9498 19.8826 80.9498 20.3221C80.9498 20.5287 81.0479 20.682 81.2442 20.7853C81.4405 20.8885 81.8014 20.9947 82.3244 21.1068L84.3457 21.4784C85.666 21.7115 86.6505 22.1215 87.2973 22.7055C87.9445 23.2896 88.2677 24.1538 88.2677 25.2983C88.2677 26.5519 87.7336 27.546 86.662 28.2834C85.5905 29.0208 84.0714 29.3895 82.1019 29.3895C80.9437 29.3866 79.8178 29.242 78.7261 28.953Z" fill="white"/>
<path d="M93.0395 28.5192C91.8819 27.9411 91.0066 27.1565 90.4232 26.1654C89.8399 25.1743 89.5454 24.0593 89.5454 22.8204C89.5454 21.5815 89.8484 20.4725 90.4549 19.4961C91.0615 18.5197 91.9509 17.7528 93.1236 17.1953C94.2959 16.6378 95.6966 16.3606 97.3284 16.3606C99.3498 16.3606 101.028 16.7942 102.362 17.6614V21.44C101.892 21.1096 101.342 20.8411 100.716 20.6347C100.089 20.4282 99.4192 20.3249 98.703 20.3249C97.4497 20.3249 96.4707 20.558 95.7631 21.027C95.0554 21.496 94.7005 22.1066 94.7005 22.8646C94.7005 23.6079 95.0438 24.2156 95.7314 24.6935C96.4189 25.1684 97.415 25.4073 98.7231 25.4073C99.3961 25.4073 100.06 25.307 100.716 25.1094C101.369 24.9088 101.932 24.664 102.402 24.3749V28.0295C100.921 28.9381 99.2028 29.3923 97.2474 29.3923C95.6015 29.3864 94.1977 29.0974 93.0395 28.5192Z" fill="white"/>
<path d="M107.404 28.5194C106.238 27.9413 105.348 27.1508 104.736 26.1449C104.124 25.1391 103.815 24.0182 103.815 22.7793C103.815 21.5405 104.121 20.4343 104.736 19.4639C105.351 18.4934 106.235 17.7324 107.396 17.1808C108.554 16.6292 109.937 16.3549 111.54 16.3549C113.143 16.3549 114.526 16.6292 115.684 17.1808C116.842 17.7324 117.726 18.4875 118.333 19.4521C118.939 20.4166 119.242 21.5228 119.242 22.7764C119.242 24.0153 118.939 25.1362 118.333 26.142C117.726 27.1478 116.839 27.9384 115.673 28.5165C114.506 29.0947 113.128 29.3837 111.537 29.3837C109.946 29.3837 108.568 29.0976 107.404 28.5194ZM113.547 24.8559C114.038 24.3545 114.286 23.6908 114.286 22.8649C114.286 22.039 114.041 21.3812 113.547 20.8945C113.056 20.4048 112.386 20.16 111.537 20.16C110.674 20.16 109.998 20.4048 109.504 20.8945C109.013 21.3841 108.767 22.039 108.767 22.8649C108.767 23.6908 109.013 24.3545 109.504 24.8559C109.995 25.3574 110.674 25.6111 111.537 25.6111C112.386 25.6081 113.056 25.3574 113.547 24.8559Z" fill="white"/>
<path d="M131.389 17.1218V21.5817C130.875 21.2366 130.211 21.0655 129.388 21.0655C128.31 21.0655 127.479 21.3989 126.901 22.0655C126.32 22.7321 126.032 23.7704 126.032 25.1744V28.9737H121.079V16.8947H125.931V20.7352C126.199 19.3311 126.636 18.2958 127.236 17.6262C127.834 16.9596 128.608 16.6262 129.549 16.6262C130.263 16.6262 130.875 16.7914 131.389 17.1218Z" fill="white"/>
<path d="M147.845 14.1071V28.9735H142.892V26.2687C142.473 27.2863 141.838 28.0621 140.983 28.593C140.128 29.1211 139.071 29.3865 137.818 29.3865C136.697 29.3865 135.721 29.1092 134.886 28.5518C134.052 27.9943 133.408 27.2303 132.955 26.2598C132.504 25.2894 132.276 24.1921 132.276 22.9651C132.262 21.6996 132.501 20.564 132.995 19.5581C133.486 18.5523 134.182 17.7677 135.077 17.2042C135.973 16.6409 136.995 16.3577 138.141 16.3577C140.501 16.3577 142.084 17.4048 142.892 19.4962V14.1071H147.845ZM142.153 24.7732C142.658 24.2717 142.909 23.6199 142.909 22.8235C142.909 22.0536 142.664 21.4253 142.173 20.9445C141.682 20.4637 141.009 20.2218 140.163 20.2218C139.328 20.2218 138.661 20.4666 138.162 20.9563C137.662 21.446 137.414 22.0801 137.414 22.8647C137.414 23.6494 137.662 24.2895 138.162 24.785C138.661 25.2805 139.32 25.5283 140.143 25.5283C140.977 25.5254 141.647 25.2746 142.153 24.7732Z" fill="white"/>
<path d="M71.0964 18.1804C72.4599 18.1804 73.5657 17.1662 73.5657 15.915C73.5657 14.6639 72.4599 13.6497 71.0964 13.6497C69.7324 13.6497 68.6271 14.6639 68.6271 15.915C68.6271 17.1662 69.7324 18.1804 71.0964 18.1804Z" fill="white"/>
<path d="M68.6249 19.741C70.1379 20.4076 72.0153 20.4371 73.5631 19.741V29.0384H68.6249V19.741Z" fill="white"/>
</g>
<defs>
<clipPath id="clip0_85_678">
<rect width="147.284" height="41.343" fill="white" transform="translate(0.941284 0.328125)"/>
</clipPath>
</defs>
</svg>
