<svg width="117" height="42" viewBox="0 0 117 42" fill="none" xmlns="http://www.w3.org/2000/svg">
<g clip-path="url(#clip0_85_680)">
<path fill-rule="evenodd" clip-rule="evenodd" d="M15.2384 4.63477C6.94388 4.63477 0.225708 11.3529 0.225708 19.6474C0.225708 26.2905 4.52309 31.9015 10.4906 33.8907C11.2413 34.0221 11.5227 33.5717 11.5227 33.1776C11.5227 32.8211 11.504 31.6388 11.504 30.3815C7.73205 31.0758 6.75622 29.462 6.45597 28.6175C6.28708 28.1859 5.55521 26.8535 4.91717 26.497C4.39173 26.2155 3.64109 25.5211 4.8984 25.5024C6.08065 25.4836 6.92511 26.5908 7.2066 27.0412C8.55774 29.3118 10.7158 28.6738 11.579 28.2797C11.7104 27.3039 12.1045 26.6471 12.5361 26.2718C9.19578 25.8965 5.70533 24.6016 5.70533 18.8593C5.70533 17.2266 6.28708 15.8755 7.24413 14.8246C7.09401 14.4493 6.56856 12.9105 7.39426 10.8463C7.39426 10.8463 8.65157 10.4522 11.5227 12.3851C12.7238 12.0473 13.9998 11.8784 15.2759 11.8784C16.552 11.8784 17.8281 12.0473 19.0291 12.3851C21.9003 10.4334 23.1576 10.8463 23.1576 10.8463C23.9833 12.9105 23.4578 14.4493 23.3077 14.8246C24.2648 15.8755 24.8465 17.2079 24.8465 18.8593C24.8465 24.6204 21.3373 25.8965 17.997 26.2718C18.5412 26.7409 19.0103 27.6417 19.0103 29.0491C19.0103 31.0571 18.9916 32.6709 18.9916 33.1776C18.9916 33.5717 19.273 34.0408 20.0237 33.8907C23.004 32.8846 25.5937 30.9692 27.4284 28.4141C29.263 25.8591 30.2503 22.793 30.2511 19.6474C30.2511 11.3529 23.5329 4.63477 15.2384 4.63477Z" fill="white"/>
<path d="M70.2123 26.8937H70.1773C70.193 26.8937 70.2035 26.9112 70.2193 26.9129H70.2298L70.2123 26.8954V26.8937ZM70.2193 26.9129C70.0564 26.9147 69.6466 27.0005 69.2139 27.0005C67.8478 27.0005 67.3749 26.37 67.3749 25.5468V20.0629H70.1598C70.3174 20.0629 70.44 19.9228 70.44 19.7301V16.7526C70.44 16.595 70.2999 16.4549 70.1598 16.4549H67.3749V12.7592C67.3749 12.6191 67.2873 12.5316 67.1297 12.5316H63.3465C63.1889 12.5316 63.1013 12.6191 63.1013 12.7592V16.56C63.1013 16.56 61.1922 17.0329 61.0696 17.0504C60.9295 17.0854 60.8419 17.208 60.8419 17.3481V19.7301C60.8419 19.9228 60.982 20.0629 61.1396 20.0629H63.0838V25.8078C63.0838 30.0814 66.0613 30.5192 68.093 30.5192C69.0213 30.5192 70.1422 30.2215 70.3174 30.1339C70.4225 30.0989 70.475 29.9763 70.475 29.8537V27.2265C70.4774 27.1519 70.4529 27.0791 70.4059 27.0212C70.359 26.9632 70.2927 26.9242 70.2193 26.9112V26.9129ZM111.722 23.0579C111.722 19.8878 110.444 19.4674 109.095 19.6075C108.044 19.6776 107.204 20.203 107.204 20.203V26.3682C107.204 26.3682 108.062 26.9637 109.34 26.9988C111.144 27.0513 111.722 26.4033 111.722 23.0579ZM115.978 22.7777C115.978 28.7853 114.034 30.5017 110.636 30.5017C107.764 30.5017 106.223 29.048 106.223 29.048C106.223 29.048 106.153 29.8537 106.065 29.9588C106.013 30.0639 105.925 30.0989 105.82 30.0989H103.228C103.053 30.0989 102.895 29.9588 102.895 29.8011L102.93 10.3422C102.93 10.1846 103.07 10.0445 103.228 10.0445H106.958C107.116 10.0445 107.256 10.1846 107.256 10.3422V16.9453C107.256 16.9453 108.692 16.017 110.794 16.017L110.777 15.982C112.878 15.982 115.978 16.7701 115.978 22.7777ZM100.706 16.4549H97.0274C96.8348 16.4549 96.7297 16.595 96.7297 16.7876V26.3157C96.7297 26.3157 95.7664 26.9988 94.4528 26.9988C93.1391 26.9988 92.7538 26.4033 92.7538 25.0897V16.7701C92.7538 16.6125 92.6137 16.4724 92.4561 16.4724H88.7079C88.5503 16.4724 88.4102 16.6125 88.4102 16.7701V25.7202C88.4102 29.5734 90.5645 30.5368 93.5245 30.5368C95.959 30.5368 97.9382 29.1881 97.9382 29.1881C97.9382 29.1881 98.0258 29.8712 98.0783 29.9763C98.1133 30.0639 98.2359 30.1339 98.3586 30.1339H100.706C100.898 30.1339 101.003 29.9938 101.003 29.8362L101.038 16.7526C101.038 16.595 100.898 16.4549 100.706 16.4549ZM59.1955 16.4374H55.4648C55.3072 16.4374 55.1671 16.595 55.1671 16.7876V29.6435C55.1671 29.9938 55.3948 30.1164 55.6925 30.1164H59.0554C59.4057 30.1164 59.4932 29.9588 59.4932 29.6435V16.7351C59.4932 16.5775 59.3531 16.4374 59.1955 16.4374ZM57.3564 10.5174C56.0078 10.5174 54.9394 11.5858 54.9394 12.9344C54.9394 14.283 56.0078 15.3514 57.3564 15.3514C58.67 15.3514 59.7384 14.283 59.7384 12.9344C59.7384 11.5858 58.67 10.5174 57.3564 10.5174ZM86.2383 10.0795H82.5427C82.3851 10.0795 82.2449 10.2196 82.2449 10.3772V17.5408H76.4476V10.3772C76.4476 10.2196 76.3074 10.0795 76.1498 10.0795H72.4192C72.2615 10.0795 72.1214 10.2196 72.1214 10.3772V29.8362C72.1214 29.9938 72.279 30.1339 72.4192 30.1339H76.1498C76.3074 30.1339 76.4476 29.9938 76.4476 29.8362V21.5166H82.2449L82.2099 29.8362C82.2099 29.9938 82.35 30.1339 82.5077 30.1339H86.2383C86.396 30.1339 86.5361 29.9938 86.5361 29.8362V10.3772C86.5361 10.2196 86.396 10.0795 86.2383 10.0795ZM53.1879 18.6968V28.7502C53.1879 28.8203 53.1704 28.9429 53.0828 28.9779C53.0828 28.9779 50.8935 30.5368 47.2854 30.5368C42.9243 30.5368 37.7574 29.1706 37.7574 20.168C37.7574 11.1654 42.2762 9.30883 46.6899 9.32635C50.5082 9.32635 52.0495 10.1846 52.2947 10.3422C52.3647 10.4298 52.3998 10.4998 52.3998 10.5874L51.6641 13.705C51.6641 13.8627 51.5065 14.0553 51.3138 14.0028C50.6833 13.8101 49.7375 13.4248 47.5131 13.4248C44.9385 13.4248 42.1711 14.1604 42.1711 19.9578C42.1711 25.7552 44.7983 26.4383 46.6899 26.4383C48.3013 26.4383 48.8793 26.2456 48.8793 26.2456V22.2172H46.3046C46.1119 22.2172 45.9718 22.0771 45.9718 21.9195V18.6968C45.9718 18.5391 46.1119 18.399 46.3046 18.399H52.8551C53.0478 18.399 53.1879 18.5391 53.1879 18.6968Z" fill="white"/>
</g>
<defs>
<clipPath id="clip0_85_680">
<rect width="116.277" height="41.343" fill="white" transform="translate(0.225708 0.328125)"/>
</clipPath>
</defs>
</svg>
