<svg width="115" height="42" viewBox="0 0 115 42" fill="none" xmlns="http://www.w3.org/2000/svg">
<g clip-path="url(#clip0_85_674)">
<path d="M12.6053 5.49609H0V35.642L12.6053 5.49609Z" fill="white"/>
<path d="M21.4743 5.49609H34.0632V35.642L21.4743 5.49609Z" fill="white"/>
<path d="M17.0399 16.6069L25.063 35.6422H19.7991L17.4012 29.5818H11.5297L17.0399 16.6069Z" fill="white"/>
<path d="M54.6275 24.667L56.1139 28.9289C56.1631 29.0357 56.237 29.085 56.3684 29.085H59.2262C59.3822 29.085 59.4069 29.0111 59.3822 28.855L53.4779 12.4558C53.4532 12.3244 53.4286 12.2998 53.2972 12.2998H49.7496C49.6511 12.2998 49.5936 12.3737 49.5936 12.4805C49.5443 13.3427 49.4704 13.6055 49.3637 13.8601L44.0998 28.8304C44.0752 29.0111 44.1327 29.085 44.2805 29.085H46.8344C46.9904 29.085 47.0643 29.0357 47.1218 28.8797L48.5261 24.667H54.6275ZM49.339 21.8831C50.111 19.5509 51.1292 16.5618 51.5398 14.8537H51.5645C52.0736 16.6439 53.2726 20.1915 53.8145 21.8831H49.339Z" fill="white"/>
<path d="M66.9728 29.3395C68.5084 29.3395 70.1426 29.0603 71.8014 28.3458C71.9328 28.2965 71.9574 28.2391 71.9574 28.1159C71.9082 27.656 71.8507 26.9909 71.8507 26.4817V11.0433C71.8507 10.9448 71.8507 10.8955 71.7275 10.8955H68.9437C68.8369 10.8955 68.7877 10.9448 68.7877 11.0762V16.3072C68.3524 16.2579 68.0486 16.2333 67.6872 16.2333C63.1953 16.2333 60.4361 19.1978 60.4361 22.9013C60.4361 27.1962 63.2692 29.3395 66.9728 29.3395V29.3395ZM68.7876 26.4817C68.3278 26.6295 67.8186 26.687 67.3013 26.687C65.2647 26.687 63.5977 25.5374 63.5977 22.7453C63.5977 20.2735 65.314 18.8118 67.5887 18.8118C68.0486 18.8118 68.451 18.8611 68.7876 18.9925V26.4817Z" fill="white"/>
<path d="M80.8383 16.2334C77.0034 16.2334 74.6301 19.1733 74.6301 22.8029C74.6301 26.0466 76.5189 29.3396 80.7808 29.3396C84.3859 29.3396 86.9151 26.6872 86.9151 22.7208C86.9151 19.2225 84.7718 16.2334 80.8383 16.2334ZM80.6823 18.8119C82.8502 18.8119 83.77 20.676 83.77 22.8029C83.77 25.4307 82.415 26.7364 80.8383 26.7364C78.8921 26.7364 77.7424 25.1023 77.7424 22.7454C77.7424 20.3229 78.966 18.8119 80.6823 18.8119V18.8119Z" fill="white"/>
<path d="M89.7933 10.8955C89.6865 10.8955 89.6126 10.9448 89.6126 11.0762V28.5511C89.6126 28.625 89.6865 28.7564 89.7933 28.7811C91.0168 29.1588 92.2979 29.3395 93.62 29.3395C97.4057 29.3395 101.085 26.9909 101.085 22.2608C101.085 18.8364 98.736 16.2333 95.0571 16.2333C94.2113 16.2333 93.4229 16.3646 92.7331 16.5946L92.7003 11.1008C92.7003 10.9201 92.651 10.8955 92.4704 10.8955H89.7933ZM97.9395 22.5728C97.9395 25.406 96.0015 26.7363 93.9074 26.7363C93.4722 26.7363 93.0862 26.7116 92.7331 26.6049V19.1485C93.1355 18.9925 93.62 18.8611 94.5151 18.8611C96.5352 18.8611 97.9395 20.1421 97.9395 22.5728Z" fill="white"/>
<path d="M111.474 23.4927C112.722 23.4927 113.749 23.4681 114.102 23.386C114.233 23.3613 114.282 23.3121 114.307 23.2053C114.381 22.9261 114.414 22.3431 114.414 21.6286C114.414 19.1979 112.952 16.2334 109.175 16.2334C105.315 16.2334 103.172 19.3786 103.172 22.9261C103.172 26.0713 104.83 29.3396 109.478 29.3396C111.219 29.3396 112.344 29.0604 113.313 28.6005C113.412 28.5513 113.461 28.4692 113.461 28.3213V26.1945C113.461 26.0713 113.387 26.0466 113.313 26.0959C112.344 26.5065 111.293 26.7118 110.144 26.7118C107.54 26.7118 106.358 25.2747 106.284 23.4927H111.474ZM106.284 21.2919C106.489 20.0437 107.278 18.6888 109.043 18.6888C110.989 18.6888 111.499 20.3229 111.499 21.062C111.499 21.0866 111.499 21.1934 111.499 21.2673C111.392 21.2919 111.063 21.2919 110.094 21.2919H106.284Z" fill="white"/>
</g>
<defs>
<clipPath id="clip0_85_674">
<rect width="114.555" height="41.343" fill="white" transform="translate(0 0.328125)"/>
</clipPath>
</defs>
</svg>
