<svg width="173" height="80" viewBox="0 0 173 80" fill="none" xmlns="http://www.w3.org/2000/svg">
<mask id="path-1-inside-1_16_143" fill="white">
<path fill-rule="evenodd" clip-rule="evenodd" d="M51.4907 75.8044C29.4681 72.1791 13.2209 59.4587 3.32932 39.6457C2.95965 38.9052 2.05803 38.6042 1.31551 38.9733C0.572988 39.3425 0.270741 40.242 0.64041 40.9825C10.9326 61.598 27.964 74.9686 51 78.7607C61.5331 80.4943 73.9153 78.959 81.9031 71.1368C87.7649 72.1787 93.6596 71.351 97.3579 70.501C116.739 67.6712 130.862 56.3742 141.837 43.6586C147.33 37.2942 152.058 30.5456 156.273 24.2887C157.242 22.8504 158.181 21.4415 159.096 20.0705L159.096 20.0703C161.93 15.82 164.522 11.9329 166.997 8.65629C166.782 10.2875 166.571 12.0131 166.362 13.7318L164.6 26.1611C164.444 27.2673 165.195 28.2973 166.298 28.4882C167.402 28.6791 168.458 27.9619 168.686 26.8679C169.302 23.9013 169.857 19.3567 170.393 14.9514L170.415 14.7656L170.476 14.2665L172.039 3.23787C172.133 2.57574 171.9 1.90941 171.414 1.44901C170.929 0.988614 170.25 0.790872 169.591 0.918141C166.178 1.57831 161.428 3.3682 156.931 5.26892C152.385 7.19037 147.921 9.30248 145.022 10.6924C143.989 11.1876 143.554 12.4241 144.05 13.4541C144.545 14.4841 145.784 14.9176 146.817 14.4224C149.703 13.0388 154.095 10.9614 158.547 9.07953C160.695 8.17183 162.817 7.32681 164.768 6.62953C162.177 10.0404 159.46 14.1146 156.552 18.4762C155.647 19.8329 154.724 21.2175 153.78 22.6185C149.582 28.8514 144.933 35.4796 139.561 41.7045C128.816 54.1541 115.275 64.8758 96.8654 67.545C96.824 67.551 96.7828 67.5587 96.742 67.5681C93.6441 68.285 88.9968 68.9598 84.2747 68.449C85.194 67.2395 86.0211 65.919 86.7416 64.4826C90.8188 56.3545 85.9466 48.5101 79.9315 45.1252C76.8946 43.4163 73.3164 42.676 70.1263 43.7151C66.8416 44.785 64.3303 47.6196 63.2996 52.2897C62.0938 57.7545 64.1191 62.0159 67.6939 65.0818C70.5343 67.5178 74.3513 69.2129 78.329 70.3132C71.2729 76.0725 60.8813 77.3499 51.4907 75.8044ZM84.0555 63.143C83.1636 64.9212 82.0923 66.4893 80.8763 67.8658C76.5 66.8634 72.4296 65.1907 69.6528 62.8093C66.7818 60.347 65.3006 57.1582 66.2331 52.9323C67.0873 49.062 68.9963 47.2346 71.0573 46.5633C73.2128 45.8612 75.9055 46.3006 78.4545 47.735C83.6111 50.6368 87.1702 56.9337 84.0555 63.143Z"/>
</mask>
<path fill-rule="evenodd" clip-rule="evenodd" d="M51.4907 75.8044C29.4681 72.1791 13.2209 59.4587 3.32932 39.6457C2.95965 38.9052 2.05803 38.6042 1.31551 38.9733C0.572988 39.3425 0.270741 40.242 0.64041 40.9825C10.9326 61.598 27.964 74.9686 51 78.7607C61.5331 80.4943 73.9153 78.959 81.9031 71.1368C87.7649 72.1787 93.6596 71.351 97.3579 70.501C116.739 67.6712 130.862 56.3742 141.837 43.6586C147.33 37.2942 152.058 30.5456 156.273 24.2887C157.242 22.8504 158.181 21.4415 159.096 20.0705L159.096 20.0703C161.93 15.82 164.522 11.9329 166.997 8.65629C166.782 10.2875 166.571 12.0131 166.362 13.7318L164.6 26.1611C164.444 27.2673 165.195 28.2973 166.298 28.4882C167.402 28.6791 168.458 27.9619 168.686 26.8679C169.302 23.9013 169.857 19.3567 170.393 14.9514L170.415 14.7656L170.476 14.2665L172.039 3.23787C172.133 2.57574 171.9 1.90941 171.414 1.44901C170.929 0.988614 170.25 0.790872 169.591 0.918141C166.178 1.57831 161.428 3.3682 156.931 5.26892C152.385 7.19037 147.921 9.30248 145.022 10.6924C143.989 11.1876 143.554 12.4241 144.05 13.4541C144.545 14.4841 145.784 14.9176 146.817 14.4224C149.703 13.0388 154.095 10.9614 158.547 9.07953C160.695 8.17183 162.817 7.32681 164.768 6.62953C162.177 10.0404 159.46 14.1146 156.552 18.4762C155.647 19.8329 154.724 21.2175 153.78 22.6185C149.582 28.8514 144.933 35.4796 139.561 41.7045C128.816 54.1541 115.275 64.8758 96.8654 67.545C96.824 67.551 96.7828 67.5587 96.742 67.5681C93.6441 68.285 88.9968 68.9598 84.2747 68.449C85.194 67.2395 86.0211 65.919 86.7416 64.4826C90.8188 56.3545 85.9466 48.5101 79.9315 45.1252C76.8946 43.4163 73.3164 42.676 70.1263 43.7151C66.8416 44.785 64.3303 47.6196 63.2996 52.2897C62.0938 57.7545 64.1191 62.0159 67.6939 65.0818C70.5343 67.5178 74.3513 69.2129 78.329 70.3132C71.2729 76.0725 60.8813 77.3499 51.4907 75.8044ZM84.0555 63.143C83.1636 64.9212 82.0923 66.4893 80.8763 67.8658C76.5 66.8634 72.4296 65.1907 69.6528 62.8093C66.7818 60.347 65.3006 57.1582 66.2331 52.9323C67.0873 49.062 68.9963 47.2346 71.0573 46.5633C73.2128 45.8612 75.9055 46.3006 78.4545 47.735C83.6111 50.6368 87.1702 56.9337 84.0555 63.143Z" fill="white"/>
<path d="M3.32932 39.6457L4.05349 39.2841L4.0535 39.2841L3.32932 39.6457ZM51.4907 75.8044L51.3592 76.6031L51.3592 76.6031L51.4907 75.8044ZM1.31551 38.9733L1.67586 39.6981L1.67585 39.6981L1.31551 38.9733ZM0.64041 40.9825L-0.0837612 41.3441L-0.0837672 41.3441L0.64041 40.9825ZM51 78.7607L50.8686 79.5594L50.8686 79.5594L51 78.7607ZM81.9031 71.1368L81.3368 70.5585L81.6345 70.267L82.0447 70.3399L81.9031 71.1368ZM97.3579 70.501L97.1766 69.7122L97.2085 69.7049L97.241 69.7001L97.3579 70.501ZM141.837 43.6586L142.449 44.1875L141.837 43.6586ZM156.273 24.2887L156.944 24.7409L156.944 24.7409L156.273 24.2887ZM159.096 20.0705L158.422 19.6214L158.436 19.6013L158.45 19.582L159.096 20.0705ZM159.096 20.0703L159.769 20.5194L159.756 20.5396L159.741 20.5589L159.096 20.0703ZM166.997 8.65629L166.351 8.16849L168.2 5.71931L167.799 8.76211L166.997 8.65629ZM166.362 13.7318L167.165 13.8294L167.164 13.8374L167.163 13.8454L166.362 13.7318ZM164.6 26.1611L165.402 26.2747L164.6 26.1611ZM166.298 28.4882L166.16 29.2858L166.298 28.4882ZM168.686 26.8679L167.893 26.7032L168.686 26.8679ZM170.393 14.9514L171.196 15.049L171.196 15.049L170.393 14.9514ZM170.415 14.7656L169.612 14.668L169.612 14.668L170.415 14.7656ZM170.476 14.2665L169.672 14.1688L169.673 14.1608L169.674 14.1529L170.476 14.2665ZM172.039 3.23787L172.84 3.35145L172.84 3.35145L172.039 3.23787ZM169.591 0.918141L169.438 0.12346L169.438 0.123461L169.591 0.918141ZM156.931 5.26892L156.616 4.52338L156.616 4.52338L156.931 5.26892ZM145.022 10.6924L144.672 9.96253L144.672 9.96253L145.022 10.6924ZM146.817 14.4224L146.467 13.6925L146.467 13.6925L146.817 14.4224ZM158.547 9.07953L158.232 8.33399L158.232 8.33399L158.547 9.07953ZM164.768 6.62953L164.496 5.86732L167.06 4.95112L165.413 7.1192L164.768 6.62953ZM156.552 18.4762L155.878 18.0272L155.878 18.0272L156.552 18.4762ZM153.78 22.6185L153.109 22.1663L153.109 22.1663L153.78 22.6185ZM139.561 41.7045L140.173 42.2333L139.561 41.7045ZM96.8654 67.545L96.7493 66.7439L96.7493 66.7439L96.8654 67.545ZM96.742 67.5681L96.5596 66.7796L96.5596 66.7796L96.742 67.5681ZM84.2747 68.449L84.1876 69.2537L82.7635 69.0997L83.6303 67.9592L84.2747 68.449ZM86.7416 64.4826L87.4651 64.8455L86.7416 64.4826ZM79.9315 45.1252L80.3284 44.4198L79.9315 45.1252ZM70.1263 43.7151L69.8756 42.9455L69.8756 42.9455L70.1263 43.7151ZM63.2996 52.2897L62.5092 52.1153L62.5093 52.1153L63.2996 52.2897ZM67.6939 65.0818L68.2208 64.4674L67.6939 65.0818ZM78.329 70.3132L78.5448 69.5331L80.0534 69.9505L78.8408 70.9403L78.329 70.3132ZM80.8763 67.8658L81.4829 68.4017L81.1644 68.7622L80.6955 68.6548L80.8763 67.8658ZM84.0555 63.143L84.779 63.5059L84.0555 63.143ZM69.6528 62.8093L70.1797 62.1949L69.6528 62.8093ZM66.2331 52.9323L65.4427 52.7579L65.4427 52.7579L66.2331 52.9323ZM71.0573 46.5633L71.3079 47.3329L71.0573 46.5633ZM78.4545 47.735L78.0576 48.4404L78.4545 47.735ZM4.0535 39.2841C13.8366 58.8799 29.872 71.4253 51.6222 75.0058L51.3592 76.6031C29.0642 72.9329 12.6052 60.0375 2.60515 40.0072L4.0535 39.2841ZM0.955165 38.2486C2.09618 37.6813 3.48372 38.1429 4.05349 39.2841L2.60515 40.0072C2.43557 39.6675 2.01988 39.5271 1.67586 39.6981L0.955165 38.2486ZM-0.0837672 41.3441C-0.653994 40.2018 -0.186775 38.8163 0.955173 38.2486L1.67585 39.6981C1.33275 39.8687 1.19548 40.2822 1.36459 40.621L-0.0837672 41.3441ZM50.8686 79.5594C27.5601 75.7224 10.3168 62.1767 -0.0837612 41.3441L1.36458 40.621C11.5483 61.0192 28.368 74.2148 51.1315 77.962L50.8686 79.5594ZM82.4694 71.7151C74.2215 79.792 61.5288 81.3139 50.8686 79.5594L51.1315 77.962C61.5374 79.6747 73.6092 78.1259 81.3368 70.5585L82.4694 71.7151ZM97.5392 71.2899C93.7865 72.1523 87.7725 73.0022 81.7614 71.9337L82.0447 70.3399C87.7574 71.3553 93.5328 70.5496 97.1766 69.7122L97.5392 71.2899ZM142.449 44.1875C131.41 56.9784 117.126 68.4328 97.4748 71.302L97.241 69.7001C116.353 66.9097 130.315 55.77 141.224 43.1298L142.449 44.1875ZM156.944 24.7409C152.725 31.0043 147.975 37.7854 142.449 44.1875L141.224 43.1298C146.684 36.803 151.392 30.0869 155.602 23.8365L156.944 24.7409ZM159.769 20.5196C158.855 21.8904 157.914 23.3007 156.944 24.7409L155.602 23.8365C156.569 22.4 157.508 20.9927 158.422 19.6214L159.769 20.5196ZM159.741 20.5589L159.741 20.559L158.45 19.582L158.45 19.5818L159.741 20.5589ZM167.643 9.14408C165.185 12.3979 162.607 16.2635 159.769 20.5194L158.422 19.6213C161.253 15.3766 163.859 11.4679 166.351 8.16849L167.643 9.14408ZM165.558 13.6341C165.767 11.9158 165.979 10.1863 166.194 8.55046L167.799 8.76211C167.585 10.3886 167.374 12.1104 167.165 13.8294L165.558 13.6341ZM163.799 26.0475L165.561 13.6182L167.163 13.8454L165.402 26.2747L163.799 26.0475ZM166.16 29.2858C164.628 29.0206 163.581 27.5883 163.799 26.0475L165.402 26.2747C165.307 26.9463 165.763 27.5741 166.436 27.6907L166.16 29.2858ZM169.478 27.0326C169.162 28.5553 167.692 29.5508 166.16 29.2858L166.436 27.6907C167.111 27.8074 167.755 27.3685 167.893 26.7032L169.478 27.0326ZM171.196 15.049C170.663 19.4397 170.103 24.0247 169.478 27.0326L167.893 26.7032C168.501 23.7779 169.052 19.2737 169.589 14.8538L171.196 15.049ZM171.219 14.8633L171.196 15.049L169.589 14.8538L169.612 14.668L171.219 14.8633ZM171.279 14.3641L171.219 14.8633L169.612 14.668L169.672 14.1688L171.279 14.3641ZM172.84 3.35145L171.277 14.38L169.674 14.1529L171.237 3.1243L172.84 3.35145ZM171.971 0.861567C172.647 1.5021 172.971 2.42958 172.84 3.35145L171.237 3.1243C171.294 2.72189 171.153 2.31673 170.857 2.03646L171.971 0.861567ZM169.438 0.123461C170.352 -0.0532971 171.295 0.221179 171.971 0.861567L170.857 2.03646C170.562 1.75605 170.147 1.63504 169.745 1.71283L169.438 0.123461ZM156.616 4.52338C161.112 2.62295 165.932 0.801455 169.438 0.12346L169.745 1.71282C166.424 2.35517 161.744 4.11345 157.246 6.01446L156.616 4.52338ZM144.672 9.96253C147.574 8.5714 152.052 6.45254 156.616 4.52338L157.246 6.01446C152.718 7.92821 148.269 10.0336 145.372 11.4222L144.672 9.96253ZM143.32 13.8051C142.63 12.3704 143.237 10.6505 144.672 9.96253L145.372 11.4222C144.741 11.7247 144.478 12.4778 144.779 13.1031L143.32 13.8051ZM147.167 15.1522C145.733 15.8399 144.01 15.2389 143.32 13.8051L144.779 13.1031C145.08 13.7293 145.836 13.9954 146.467 13.6925L147.167 15.1522ZM158.862 9.82507C154.428 11.6992 150.05 13.7699 147.167 15.1522L146.467 13.6925C149.356 12.3077 153.762 10.2236 158.232 8.33399L158.862 9.82507ZM165.041 7.39174C163.108 8.08233 161.001 8.92124 158.862 9.82507L158.232 8.33399C160.389 7.42241 162.526 6.57128 164.496 5.86732L165.041 7.39174ZM155.878 18.0272C158.783 13.6714 161.514 9.57462 164.124 6.13985L165.413 7.1192C162.839 10.5062 160.137 14.5578 157.225 18.9252L155.878 18.0272ZM153.109 22.1663C154.051 20.7671 154.974 19.3841 155.878 18.0272L157.225 18.9252C156.321 20.2817 155.396 21.6679 154.451 23.0707L153.109 22.1663ZM138.948 41.1756C144.288 34.9884 148.915 28.3927 153.109 22.1663L154.451 23.0707C150.249 29.3101 145.578 35.9707 140.173 42.2333L138.948 41.1756ZM96.7493 66.7439C114.889 64.1139 128.268 53.5498 138.948 41.1756L140.173 42.2333C129.364 54.7585 115.661 65.6377 96.9816 68.346L96.7493 66.7439ZM96.5596 66.7796C96.6223 66.7651 96.6856 66.7532 96.7493 66.7439L96.9816 68.346C96.9624 68.3488 96.9433 68.3524 96.9245 68.3567L96.5596 66.7796ZM84.3617 67.6443C88.9633 68.142 93.514 67.4843 96.5596 66.7796L96.9245 68.3567C93.7741 69.0857 89.0304 69.7775 84.1876 69.2537L84.3617 67.6443ZM87.4651 64.8455C86.7223 66.3263 85.8688 67.6893 84.9191 68.9388L83.6303 67.9592C84.5192 66.7897 85.3198 65.5117 86.0181 64.1197L87.4651 64.8455ZM80.3284 44.4198C86.5706 47.9325 91.8046 56.1945 87.4651 64.8455L86.0181 64.1197C89.833 56.5145 85.3226 49.0878 79.5345 45.8306L80.3284 44.4198ZM69.8756 42.9455C73.3442 41.8157 77.1606 42.6371 80.3284 44.4198L79.5345 45.8306C76.6287 44.1954 73.2887 43.5363 70.377 44.4847L69.8756 42.9455ZM62.5093 52.1153C63.5875 47.2294 66.2611 44.1228 69.8756 42.9455L70.377 44.4847C67.4221 45.4471 65.073 48.0098 64.09 52.4642L62.5093 52.1153ZM67.1669 65.6962C63.4027 62.4679 61.2292 57.9163 62.5092 52.1153L64.09 52.4641C62.9584 57.5927 64.8354 61.564 68.2208 64.4674L67.1669 65.6962ZM78.1132 71.0933C74.0705 69.975 70.1299 68.2373 67.1669 65.6962L68.2208 64.4674C70.9388 66.7984 74.6322 68.4508 78.5448 69.5331L78.1132 71.0933ZM51.6221 75.0058C60.8865 76.5305 71.0084 75.2435 77.8172 69.6862L78.8408 70.9403C71.5374 76.9014 60.8761 78.1694 51.3592 76.6031L51.6221 75.0058ZM80.2696 67.33C81.4394 66.0058 82.4714 64.4958 83.332 62.7801L84.779 63.5059C83.8557 65.3465 82.7452 66.9727 81.4829 68.4017L80.2696 67.33ZM70.1797 62.1949C72.8173 64.457 76.7456 66.0893 81.057 67.0769L80.6955 68.6548C76.2544 67.6376 72.0418 65.9245 69.1259 63.4237L70.1797 62.1949ZM67.0235 53.1067C66.5874 55.0831 66.7224 56.7761 67.2745 58.2479C67.8287 59.7255 68.8226 61.031 70.1797 62.1949L69.1259 63.4237C67.612 62.1254 66.4298 60.6053 65.7588 58.8164C65.0857 57.0218 64.9464 55.0074 65.4427 52.7579L67.0235 53.1067ZM71.3079 47.3329C69.5749 47.8974 67.8295 49.4546 67.0235 53.1067L65.4427 52.7579C66.345 48.6695 68.4177 46.5718 70.8066 45.7937L71.3079 47.3329ZM78.0576 48.4404C75.6407 47.0804 73.186 46.7212 71.3079 47.3329L70.8066 45.7937C73.2396 45.0012 76.1703 45.5209 78.8515 47.0297L78.0576 48.4404ZM83.332 62.7801C86.1882 57.0863 82.978 51.2094 78.0576 48.4404L78.8515 47.0297C84.2441 50.0643 88.1523 56.7812 84.779 63.5059L83.332 62.7801Z" fill="#4574FF" mask="url(#path-1-inside-1_16_143)"/>
</svg>
