<svg width="20" height="20" viewBox="0 0 20 20" fill="none" xmlns="http://www.w3.org/2000/svg">
<path d="M9.20964 12.2614L7.66797 13.7259C7.34297 14.0347 6.8263 14.0347 6.49297 13.7339C6.4013 13.6468 6.30964 13.5676 6.21797 13.4805C5.35964 12.6572 4.58464 11.7943 3.89297 10.8918C3.20964 9.98928 2.65964 9.08678 2.25964 8.19219C1.86797 7.28969 1.66797 6.42678 1.66797 5.60344C1.66797 5.06511 1.76797 4.55053 1.96797 4.07553C2.16797 3.59261 2.48464 3.14928 2.9263 2.75344C3.45964 2.25469 4.04297 2.00928 4.65964 2.00928C4.89297 2.00928 5.1263 2.05678 5.33464 2.15178C5.5513 2.24678 5.74297 2.38928 5.89297 2.59511L7.8263 5.18386C7.9763 5.38178 8.08464 5.56386 8.15964 5.73803C8.23464 5.90428 8.2763 6.07053 8.2763 6.22094C8.2763 6.41094 8.21797 6.60094 8.1013 6.78303C7.99297 6.96511 7.83464 7.15511 7.63464 7.34511L7.0013 7.97053C6.90963 8.05761 6.86797 8.16053 6.86797 8.28719C6.86797 8.35053 6.8763 8.40594 6.89297 8.46928V8.46928C6.93494 8.5756 6.98716 8.67813 7.04958 8.7739C7.20459 9.01174 7.43294 9.30222 7.73464 9.64094C8.10964 10.0526 8.50963 10.4722 8.94297 10.8918C9.0263 10.9709 9.11797 11.0501 9.2013 11.1293C9.53464 11.438 9.54297 11.9447 9.20964 12.2614Z" fill="url(#paint0_linear_17_261)"/>
<path d="M18.3093 14.9373C18.3093 15.1589 18.2676 15.3885 18.1843 15.6102C18.1593 15.6735 18.1343 15.7368 18.101 15.8002C17.9593 16.0852 17.776 16.3543 17.5343 16.6077C17.1293 17.0317 16.6833 17.3389 16.18 17.537C16.1718 17.5402 16.163 17.5421 16.1551 17.5458V17.5458C16.1472 17.5496 16.1385 17.5514 16.1304 17.5545C15.6421 17.7415 15.1129 17.8427 14.5426 17.8427C13.6926 17.8427 12.7843 17.6527 11.826 17.2648C10.8676 16.8768 9.90931 16.3543 8.95931 15.6973V15.6973C8.44592 15.3346 8.40776 14.6062 8.86347 14.1733L10.2003 12.9033C10.5056 12.6133 10.9657 12.5963 11.3426 12.7839V12.7839C11.3843 12.7998 11.4343 12.8235 11.4926 12.8473C11.5593 12.871 11.626 12.8789 11.701 12.8789C11.8426 12.8789 11.951 12.8314 12.0426 12.7443L12.676 12.1506C12.8843 11.9527 13.0843 11.8023 13.276 11.7073C13.4676 11.5964 13.6593 11.541 13.8676 11.541C14.026 11.541 14.1926 11.5727 14.376 11.6439C14.5593 11.7152 14.751 11.8181 14.9593 11.9527L17.7176 13.8131C17.9343 13.9556 18.0843 14.1218 18.176 14.3198C18.2593 14.5177 18.3093 14.7156 18.3093 14.9373Z" fill="url(#paint1_linear_17_261)"/>
<defs>
<linearGradient id="paint0_linear_17_261" x1="1.66797" y1="2.00928" x2="12.3945" y2="5.94153" gradientUnits="userSpaceOnUse">
<stop stop-color="#F45E29"/>
<stop offset="1" stop-color="#FFA331"/>
</linearGradient>
<linearGradient id="paint1_linear_17_261" x1="8.00098" y1="11.541" x2="16.7231" y2="19.5666" gradientUnits="userSpaceOnUse">
<stop stop-color="#F45E29"/>
<stop offset="1" stop-color="#FFA331"/>
</linearGradient>
</defs>
</svg>
