<svg width="47" height="62" viewBox="0 0 47 62" fill="none" xmlns="http://www.w3.org/2000/svg">
<path d="M35.1583 35.7871C34.0882 35.4383 32.9457 35.2502 31.7581 35.2502C25.6887 35.2502 20.7677 40.1712 20.7677 46.2425C20.7677 48.9725 21.7613 51.4653 23.4075 53.3859H2.05972C0.923054 53.3859 0 52.5295 0 51.4751V42.5934C0 36.2046 3.43154 31.0249 12.4798 31.0249H24.3208C30.0335 31.0249 33.3905 32.9004 35.1563 35.7891L35.1583 35.7871Z" fill="url(#paint0_linear_84_1436)"/>
<path d="M29.0555 19.9289C31.504 13.8196 28.5363 6.882 22.4269 4.43348C16.3176 1.98495 9.38001 4.95267 6.93148 11.062C4.48296 17.1714 7.45068 24.1089 13.5601 26.5575C19.6694 29.006 26.607 26.0383 29.0555 19.9289Z" fill="url(#paint1_linear_84_1436)"/>
<path d="M41.0093 52.0825C44.2595 46.9549 42.7377 40.1634 37.6102 36.9131C32.4826 33.6629 25.6911 35.1847 22.4408 40.3122C19.1905 45.4397 20.7124 52.2313 25.8399 55.4816C30.9674 58.7318 37.759 57.21 41.0093 52.0825Z" fill="url(#paint2_linear_84_1436)"/>
<path d="M31.766 57.2915C25.6731 57.2915 20.7148 52.3352 20.7148 46.2404C20.7148 40.1455 25.6711 35.1892 31.766 35.1892C37.8609 35.1892 42.8171 40.1455 42.8171 46.2404C42.8171 52.3352 37.8609 57.2915 31.766 57.2915ZM31.766 35.3088C25.7378 35.3088 20.8324 40.2141 20.8324 46.2423C20.8324 52.2706 25.7378 57.1759 31.766 57.1759C37.7943 57.1759 42.6996 52.2706 42.6996 46.2423C42.6996 40.2141 37.7943 35.3088 31.766 35.3088Z" fill="url(#paint3_linear_84_1436)"/>
<path d="M31.4599 50.5615C31.2091 50.5615 30.97 50.4537 30.8014 50.2656L25.8589 44.7233C25.5336 44.3588 25.5669 43.8003 25.9295 43.4769C26.294 43.1516 26.8525 43.1849 27.1759 43.5475L31.3835 48.2666L36.0752 41.7033C36.3594 41.3074 36.9101 41.2154 37.306 41.4976C37.7018 41.7817 37.7939 42.3324 37.5117 42.7283L32.1792 50.1891C32.0224 50.4067 31.7755 50.5439 31.5089 50.5576C31.4933 50.5576 31.4776 50.5576 31.4619 50.5576L31.4599 50.5615Z" fill="white"/>
<defs>
<linearGradient id="paint0_linear_84_1436" x1="-4.59958" y1="15.821" x2="22.3218" y2="49.8936" gradientUnits="userSpaceOnUse">
<stop stop-color="#61E1CB"/>
<stop offset="1" stop-color="#00E16F"/>
</linearGradient>
<linearGradient id="paint1_linear_84_1436" x1="6.29067" y1="0.643818" x2="40.4925" y2="43.9293" gradientUnits="userSpaceOnUse">
<stop stop-color="#61E1CB"/>
<stop offset="1" stop-color="#00E16F"/>
</linearGradient>
<linearGradient id="paint2_linear_84_1436" x1="20.7183" y1="46.2563" x2="42.7011" y2="46.2563" gradientUnits="userSpaceOnUse">
<stop stop-color="#45E1B1"/>
<stop offset="1" stop-color="#D5FFF2"/>
</linearGradient>
<linearGradient id="paint3_linear_84_1436" x1="20.7148" y1="46.2423" x2="42.8152" y2="46.2423" gradientUnits="userSpaceOnUse">
<stop stop-color="#C5FFFF"/>
<stop offset="1" stop-color="#B3D6D6"/>
</linearGradient>
</defs>
</svg>
