<svg width="49" height="45" viewBox="0 0 49 45" fill="none" xmlns="http://www.w3.org/2000/svg">
<path opacity="0.5" d="M48.6428 18.2541V38.0934C48.6428 41.6297 45.775 44.4975 42.2388 44.4975H6.47533C2.93687 44.4975 0.0712891 41.6297 0.0712891 38.0934V17.3265C0.0712891 15.3602 0.977138 13.4984 2.52535 12.2856L7.17648 8.64258V23.7175L24.8622 32.9523L41.91 24.497V9.5223L46.4174 13.4004C47.8284 14.6177 48.6428 16.3902 48.6428 18.2563V18.2541Z" fill="white"/>
<path d="M41.921 7.53974V24.496L24.8732 32.9513L7.1875 23.7165V7.54192C7.1875 3.57014 10.408 0.349609 14.3798 0.349609H34.7286C38.7004 0.349609 41.921 3.57014 41.921 7.54192V7.53974Z" fill="url(#paint0_linear_7_1399)"/>
<path d="M24.8673 33.0235L24.8368 33.0082L7.11621 23.7538V7.53791C7.11621 3.53564 10.3716 0.280273 14.3739 0.280273H34.7227C38.725 0.280273 41.9804 3.53564 41.9804 7.53791V24.5356L24.8651 33.0235H24.8673ZM7.24906 23.6754L24.8695 32.8776L41.8519 24.455V7.54009C41.8519 3.60968 38.6553 0.413098 34.7249 0.413098H14.376C10.4456 0.413098 7.24906 3.60968 7.24906 7.54009V23.6754Z" fill="url(#paint1_linear_7_1399)"/>
<path d="M32.0302 12.4898H12.8572C11.9361 12.4898 11.1914 11.7429 11.1914 10.824C11.1914 9.90292 11.9383 9.1582 12.8572 9.1582H32.0302C32.9513 9.1582 33.696 9.90509 33.696 10.824C33.696 11.7451 32.9491 12.4898 32.0302 12.4898Z" fill="white"/>
<path d="M23.0588 20.5982H12.8572C11.9361 20.5982 11.1914 19.8513 11.1914 18.9324C11.1914 18.0113 11.9383 17.2666 12.8572 17.2666H23.0588C23.9799 17.2666 24.7247 18.0135 24.7247 18.9324C24.7247 19.8535 23.9777 20.5982 23.0588 20.5982Z" fill="white"/>
<defs>
<linearGradient id="paint0_linear_7_1399" x1="7.1875" y1="16.6483" x2="41.921" y2="16.6483" gradientUnits="userSpaceOnUse">
<stop stop-color="#C868F5"/>
<stop offset="0.0001" stop-color="#66D083"/>
<stop offset="1" stop-color="#27B123"/>
</linearGradient>
<linearGradient id="paint1_linear_7_1399" x1="7.11621" y1="16.653" x2="41.9804" y2="16.653" gradientUnits="userSpaceOnUse">
<stop stop-color="#C5FFFF"/>
<stop offset="1" stop-color="#B3D6D6"/>
</linearGradient>
</defs>
</svg>
