<svg width="16" height="18" viewBox="0 0 16 18" fill="none" xmlns="http://www.w3.org/2000/svg">
<path d="M14.8765 5.69557C13.9839 1.76818 10.558 0 7.54874 0C7.54874 0 7.54875 0 7.54874 0C7.54874 0 7.54874 0 7.54024 0C4.53944 0 1.10509 1.75968 0.212503 5.68707C-0.782097 10.0735 1.90417 13.7884 4.33542 16.1261C5.23651 16.9932 6.39263 17.4268 7.54874 17.4268C8.70486 17.4268 9.86098 16.9932 10.7536 16.1261C13.1848 13.7884 15.8711 10.082 14.8765 5.69557ZM7.54874 9.9545C6.06959 9.9545 4.87097 8.75588 4.87097 7.27673C4.87097 5.79759 6.06959 4.59896 7.54874 4.59896C9.02789 4.59896 10.2265 5.79759 10.2265 7.27673C10.2265 8.75588 9.02789 9.9545 7.54874 9.9545Z" fill="url(#paint0_linear_0_551)"/>
<defs>
<linearGradient id="paint0_linear_0_551" x1="0" y1="0" x2="19.0562" y2="9.28117" gradientUnits="userSpaceOnUse">
<stop stop-color="#F45E29"/>
<stop offset="1" stop-color="#FFA331"/>
</linearGradient>
</defs>
</svg>
