<svg width="62" height="62" viewBox="0 0 62 62" fill="none" xmlns="http://www.w3.org/2000/svg">
<path d="M56.3994 43.2424L56.3993 43.2425C55.5598 50.0099 50.0103 55.5594 43.2429 56.3989L43.2429 56.3989C39.1436 56.9082 35.327 55.7881 32.3503 53.6001L32.3499 53.5998C30.7657 52.4412 31.1517 49.9954 33.0295 49.4321L33.03 49.4319C40.8798 47.0587 47.0591 40.8527 49.458 33.0044L49.4581 33.004C50.0206 31.1524 52.4668 30.7642 53.626 32.3237C55.7889 35.327 56.9085 39.1439 56.3994 43.2424Z" fill="url(#paint0_linear_156_16983)" stroke="url(#paint1_linear_156_16983)" stroke-width="0.458716"/>
<path d="M25.8078 5.16675C14.4153 5.16675 5.16699 14.4151 5.16699 25.8076C5.16699 37.2001 14.4153 46.4484 25.8078 46.4484C37.2003 46.4484 46.4487 37.2001 46.4487 25.8076C46.4228 14.4151 37.2003 5.16675 25.8078 5.16675ZM23.3795 22.9142L29.6053 25.0842C31.8528 25.8851 32.9378 27.4609 32.9378 29.8892C32.9378 32.6792 30.7162 34.9784 28.0037 34.9784H27.7712V35.1076C27.7712 36.1667 26.8928 37.0451 25.8337 37.0451C24.7745 37.0451 23.8962 36.1667 23.8962 35.1076V34.9526C21.0287 34.8234 18.7295 32.4209 18.7295 29.4242C18.7295 28.3651 19.6078 27.4867 20.667 27.4867C21.7262 27.4867 22.6045 28.3651 22.6045 29.4242C22.6045 30.3542 23.2762 31.1034 24.1028 31.1034H27.9778C28.572 31.1034 29.037 30.5609 29.037 29.8892C29.037 28.9851 28.882 28.9334 28.2878 28.7267L22.062 26.5567C19.8403 25.7817 18.7295 24.2059 18.7295 21.7517C18.7295 18.9617 20.9512 16.6626 23.6637 16.6626H23.8962V16.5592C23.8962 15.5001 24.7745 14.6217 25.8337 14.6217C26.8928 14.6217 27.7712 15.5001 27.7712 16.5592V16.7142C30.6387 16.8434 32.9378 19.2459 32.9378 22.2426C32.9378 23.3017 32.0595 24.1801 31.0003 24.1801C29.9412 24.1801 29.0628 23.3017 29.0628 22.2426C29.0628 21.3126 28.3912 20.5634 27.5645 20.5634H23.6895C23.0953 20.5634 22.6303 21.1059 22.6303 21.7776C22.6045 22.6559 22.7595 22.7076 23.3795 22.9142Z" fill="url(#paint2_linear_156_16983)"/>
<defs>
<linearGradient id="paint0_linear_156_16983" x1="37.1507" y1="31.3493" x2="37.478" y2="56.7477" gradientUnits="userSpaceOnUse">
<stop offset="0.412153" stop-color="#D7D3FF"/>
<stop offset="1" stop-color="#9694FF" stop-opacity="0.3"/>
</linearGradient>
<linearGradient id="paint1_linear_156_16983" x1="36.6877" y1="31.5741" x2="43.2719" y2="43.3667" gradientUnits="userSpaceOnUse">
<stop stop-color="#F0EFFF"/>
<stop offset="1" stop-color="white" stop-opacity="0"/>
</linearGradient>
<linearGradient id="paint2_linear_156_16983" x1="14.0399" y1="0.578087" x2="49.4779" y2="44.7164" gradientUnits="userSpaceOnUse">
<stop stop-color="#939DFF"/>
<stop offset="1" stop-color="#522EE1"/>
</linearGradient>
</defs>
</svg>
