<svg width="19" height="19" viewBox="0 0 19 19" fill="none" xmlns="http://www.w3.org/2000/svg">
<path d="M13.459 2.77148H5.54232C3.16732 2.77148 1.58398 3.95898 1.58398 6.72982V12.2715C1.58398 15.0423 3.16732 16.2298 5.54232 16.2298H13.459C15.834 16.2298 17.4173 15.0423 17.4173 12.2715V6.72982C17.4173 3.95898 15.834 2.77148 13.459 2.77148ZM13.8311 7.59273L11.3532 9.5719C10.8307 9.99148 10.1657 10.1973 9.50065 10.1973C8.83565 10.1973 8.16273 9.99148 7.64815 9.5719L5.17023 7.59273C4.9169 7.3869 4.87732 7.0069 5.07523 6.75357C5.28107 6.50023 5.65315 6.45273 5.90648 6.65857L8.3844 8.63773C8.98607 9.12065 10.0073 9.12065 10.609 8.63773L13.0869 6.65857C13.3402 6.45273 13.7202 6.49232 13.9181 6.75357C14.124 7.0069 14.0844 7.3869 13.8311 7.59273Z" fill="url(#paint0_linear_0_651)"/>
<defs>
<linearGradient id="paint0_linear_0_651" x1="1.58398" y1="2.77148" x2="18.789" y2="14.1571" gradientUnits="userSpaceOnUse">
<stop stop-color="#F45E29"/>
<stop offset="1" stop-color="#FFA331"/>
</linearGradient>
</defs>
</svg>
