<svg width="47" height="47" viewBox="0 0 47 47" fill="none" xmlns="http://www.w3.org/2000/svg">
<path opacity="0.5" d="M12.5474 34.6885C12.4655 34.6066 12.4036 34.5156 12.3362 34.4264C12.247 34.3591 12.1561 34.2972 12.0742 34.2153C10.0903 32.2314 -5.04714 14.5878 1.73804 7.80261C3.68914 5.8515 5.61839 4.50467 7.00528 3.66926C8.12097 2.99584 9.56063 3.29979 10.3214 4.35725L15.6615 11.7776C16.4568 12.8824 16.2257 14.4185 15.1373 15.2375C13.6886 16.3278 11.8157 17.7092 10.9239 18.2443C9.3568 19.1834 12.3854 25.3443 16.8754 29.8326C16.8809 29.8472 16.8846 29.8599 16.89 29.8745C16.9046 29.8799 16.9173 29.8817 16.9319 29.889C21.422 34.3791 27.581 37.4059 28.5202 35.8406C29.0553 34.9488 30.4367 33.0741 31.5269 31.6272C32.3459 30.5406 33.8821 30.3095 34.9868 31.103L42.4072 36.443C43.4647 37.2038 43.7668 38.6435 43.0952 39.7592C42.258 41.1461 40.9112 43.0753 38.9619 45.0264C32.1749 51.8134 14.533 36.6742 12.5492 34.6903L12.5474 34.6885Z" fill="white"/>
<path d="M33.5059 28C26.05 28 20.0059 21.732 20.0059 14C20.0059 6.268 26.05 0 33.5059 0C40.9617 0 47.0059 6.268 47.0059 14C47.0059 21.732 40.9617 28 33.5059 28Z" fill="url(#paint0_linear_7_1400)"/>
<path d="M42.4889 19C42.9329 19 43.3458 18.7334 43.4883 18.316C44.624 14.9888 43.9591 9.82612 40.8845 6.94914C36.5567 2.89934 30.5232 4.05089 28.7785 4.50109C28.2189 4.64406 27.8926 5.18507 28.0454 5.70868C28.1982 6.2323 28.7764 6.53952 29.3359 6.39461C30.8061 6.01591 35.8773 5.03822 39.402 8.33835C41.8798 10.6569 42.4146 15.012 41.4916 17.7209C41.3161 18.2368 41.6196 18.7894 42.1709 18.9536C42.2762 18.9845 42.3836 19 42.491 19H42.4889Z" fill="white"/>
<path d="M37.8355 18C38.2273 18 38.5917 17.7209 38.7175 17.284C39.3279 15.1623 39.0327 11.8615 37.2852 9.9218C34.9144 7.29042 31.6361 8.0307 30.6886 8.31993C30.1947 8.4696 29.905 9.03593 30.0416 9.58405C30.1765 10.1322 30.6867 10.4537 31.1806 10.302C33.9668 9.45054 35.5559 10.9088 35.9768 11.376C37.1467 12.6745 37.3963 15.13 36.9553 16.6611C36.8004 17.2011 37.0683 17.7795 37.5549 17.9515C37.6478 17.9838 37.7426 18 37.8373 18H37.8355Z" fill="white"/>
<defs>
<linearGradient id="paint0_linear_7_1400" x1="23.961" y1="4.10165" x2="43.7467" y2="23.1807" gradientUnits="userSpaceOnUse">
<stop stop-color="#3CB9FF"/>
<stop offset="1" stop-color="#0073B4"/>
</linearGradient>
</defs>
</svg>
