<svg width="42" height="48" viewBox="0 0 42 48" fill="none" xmlns="http://www.w3.org/2000/svg">
<path opacity="0.5" d="M37.2205 47.5589H5.10121C2.48295 47.5589 0.469173 45.5259 0.826287 43.2474L2.6136 31.8424C2.908 29.9645 4.73364 28.5674 6.88852 28.5674H9.81685C14.4785 35.8351 21.1609 41.3608 21.1609 41.3608C21.1609 41.3608 27.8955 35.8751 32.5589 28.5674H35.4332C37.5898 28.5674 39.4137 29.9662 39.7081 31.8424L41.4954 43.2474C41.8526 45.5277 39.837 47.5589 37.2205 47.5589Z" fill="white"/>
<path d="M21.1641 0.203125C12.4593 0.203125 5.40234 7.26004 5.40234 15.9649C5.40234 28.3245 21.1641 41.3583 21.1641 41.3583C21.1641 41.3583 36.9242 28.5179 36.9242 15.9649C36.9242 7.26004 29.8673 0.203125 21.1641 0.203125Z" fill="url(#paint0_linear_7_1402)"/>
<path d="M21.1617 41.4277L21.1286 41.3998C21.0885 41.3667 17.1394 38.083 13.2407 33.3308C9.63999 28.9409 5.34766 22.3666 5.34766 15.9664C5.34766 7.24584 12.4412 0.152344 21.1617 0.152344C29.8822 0.152344 36.974 7.24584 36.974 15.9664C36.974 18.839 36.1431 21.9624 34.5056 25.2531C33.1973 27.8835 31.3717 30.6255 29.0809 33.404C25.1823 38.1318 21.2331 41.3685 21.1931 41.3998L21.16 41.4277H21.1617ZM21.1617 0.256866C12.4986 0.256866 5.45217 7.30333 5.45217 15.9664C5.45217 19.4818 6.81792 25.335 13.3209 33.2629C17.0227 37.7764 20.7732 40.9643 21.1634 41.2918C21.5554 40.9678 25.3025 37.8252 29.0043 33.336C32.5928 28.9827 36.8712 22.4345 36.8712 15.9664C36.8712 7.30507 29.8247 0.256866 21.1634 0.256866H21.1617Z" fill="url(#paint1_linear_7_1402)"/>
<path d="M26.0231 18.5739C27.4574 15.8944 26.448 12.5595 23.7685 11.1252C21.089 9.69088 17.7541 10.7003 16.3197 13.3798C14.8854 16.0593 15.8948 19.3942 18.5743 20.8285C21.2538 22.2628 24.5887 21.2534 26.0231 18.5739Z" fill="white"/>
<defs>
<linearGradient id="paint0_linear_7_1402" x1="5.40234" y1="20.7816" x2="36.9242" y2="20.7816" gradientUnits="userSpaceOnUse">
<stop stop-color="#52FFFF"/>
<stop offset="1" stop-color="#2FC8C8"/>
</linearGradient>
<linearGradient id="paint1_linear_7_1402" x1="5.34766" y1="20.7883" x2="36.974" y2="20.7883" gradientUnits="userSpaceOnUse">
<stop stop-color="#C5FFFF"/>
<stop offset="1" stop-color="#B3D6D6"/>
</linearGradient>
</defs>
</svg>
