<svg width="49" height="50" viewBox="0 0 49 50" fill="none" xmlns="http://www.w3.org/2000/svg">
<path opacity="0.5" d="M44.8322 49.6087H4.19875C1.9705 49.6087 0.301748 47.5663 0.744332 45.3821L5.85219 20.2123C6.18365 18.5684 7.63024 17.3881 9.3067 17.3881H9.90066L12.1193 19.603L9.78569 24.9159L15.4569 26.144L16.367 31.8766L21.8006 29.8437L25.6651 34.1719L29.1368 29.5238L34.7294 31.0757L35.1375 25.2876L40.6804 23.5709L37.8946 18.4802L38.8142 17.3862H39.7243C41.4007 17.3862 42.8454 18.5665 43.1788 20.2103L48.2867 45.3802C48.7293 47.5624 47.0605 49.6068 44.8322 49.6068V49.6087Z" fill="white"/>
<path d="M34.7287 31.078L29.1379 29.5242L25.6643 34.1742L21.8017 29.8442L16.3663 31.877L15.4562 26.1464L9.78496 24.9163L12.1186 19.6034L8.01074 15.5052L12.8466 12.296L11.607 6.6267L17.4104 6.5424L19.4337 1.10301L24.3596 4.16853L29.0019 0.687256L31.4908 5.92929L37.2769 5.51162L36.5355 11.2652L41.6318 14.0433L37.8957 18.4826L40.6815 23.5733L35.1387 25.29L34.7287 31.078Z" fill="url(#paint0_linear_66_1394)"/>
<path d="M25.6654 34.2639L21.7818 29.9109L16.3175 31.9552L16.306 31.8862L15.4017 26.194L9.69978 24.9582L12.0449 19.6165L7.91602 15.4953L12.7768 12.2688L11.5314 6.5689L17.3636 6.48268L19.3983 1.01455L24.3511 4.0954L29.0183 0.594971L31.5187 5.86574L37.3373 5.44424L36.5921 11.2304L41.7153 14.0219L37.96 18.4861L40.7612 23.6036L35.1877 25.328L34.7758 31.1467L29.1543 29.5852L25.6616 34.2582L25.6654 34.2639ZM21.8143 29.7768L25.6577 34.0819L29.1122 29.4587L29.1505 29.4702L34.6742 31.0049L35.0804 25.2475L40.5945 23.5404L37.824 18.4765L41.5391 14.0603L36.4713 11.2994L37.209 5.57452L31.4516 5.9922L31.4343 5.95579L28.9762 0.776977L24.3588 4.2391L19.4577 1.19083L17.446 6.59955L11.6751 6.68385L12.9071 12.3225L8.09807 15.5145L12.1828 19.5916L9.86265 24.8758L15.5032 26.0982L16.4076 31.7981L21.8143 29.7768Z" fill="url(#paint1_linear_66_1394)"/>
<path opacity="0.9" d="M19.616 15.0799C21.2339 15.0799 22.5455 13.7684 22.5455 12.1504C22.5455 10.5325 21.2339 9.22095 19.616 9.22095C17.9981 9.22095 16.6865 10.5325 16.6865 12.1504C16.6865 13.7684 17.9981 15.0799 19.616 15.0799Z" fill="white"/>
<path opacity="0.9" d="M30.3035 24.9354C31.9214 24.9354 33.233 23.6238 33.233 22.0059C33.233 20.388 31.9214 19.0764 30.3035 19.0764C28.6856 19.0764 27.374 20.388 27.374 22.0059C27.374 23.6238 28.6856 24.9354 30.3035 24.9354Z" fill="white"/>
<g opacity="0.9">
<path d="M20.2934 24.357C20.1229 24.357 19.9505 24.3072 19.8011 24.2018C19.4102 23.9297 19.3144 23.3913 19.5864 23.0005L29.0283 9.44899C29.3004 9.05813 29.8387 8.96234 30.2296 9.2344C30.6205 9.50647 30.7162 10.0449 30.4441 10.4357L21.0024 23.9872C20.8338 24.2286 20.5655 24.357 20.2934 24.357Z" fill="white"/>
</g>
<defs>
<linearGradient id="paint0_linear_66_1394" x1="8.01074" y1="17.4314" x2="41.6318" y2="17.4314" gradientUnits="userSpaceOnUse">
<stop stop-color="#28FFFF"/>
<stop offset="1" stop-color="#12CFCF"/>
</linearGradient>
<linearGradient id="paint1_linear_66_1394" x1="7.91793" y1="17.4304" x2="41.7172" y2="17.4304" gradientUnits="userSpaceOnUse">
<stop stop-color="#C5FFFF"/>
<stop offset="1" stop-color="#B3D6D6"/>
</linearGradient>
</defs>
</svg>
