<svg width="45" height="55" viewBox="0 0 45 55" fill="none" xmlns="http://www.w3.org/2000/svg">
<path d="M33.7365 39.7607L29.9989 38.4022C28.7195 37.9373 27.2818 38.4022 26.5339 39.5264L24.3462 42.8093C23.1441 44.6117 20.4347 44.5298 19.3486 42.6568L17.3716 39.2482C16.6952 38.0802 15.2903 37.5277 13.9839 37.9145L10.169 39.0424C8.0722 39.6616 6.05074 37.8821 6.44112 35.7576L7.15035 31.8936C7.39385 30.5694 6.67694 29.2566 5.42464 28.7231L1.76629 27.1684C-0.243561 26.3148 -0.631947 23.6702 1.0513 22.2907L4.11432 19.7795C5.1637 18.9202 5.47099 17.4588 4.85837 16.2585L3.06888 12.7488C2.08521 10.8206 3.51329 8.54948 5.70094 8.559L9.68399 8.57616C11.0484 8.58187 12.2369 7.65969 12.55 6.35073L13.466 2.52863C13.9704 0.428958 16.5445 -0.407488 18.2142 0.987215L21.2541 3.52512C22.2957 4.39395 23.807 4.43968 24.9008 3.63563L28.0954 1.28826C29.8502 -0.00164917 32.3683 0.991024 32.7374 3.11738L33.4118 6.98711C33.6437 8.31322 34.7704 9.3059 36.1329 9.38402L40.1101 9.61075C42.2958 9.7346 43.577 12.0896 42.4736 13.953L40.4676 17.3464C39.7796 18.5086 39.996 19.9834 40.9893 20.9075L43.8882 23.6016C45.4806 25.0821 44.9279 27.6981 42.8678 28.4278L39.1187 29.7558C37.8355 30.2112 37.0372 31.4783 37.1976 32.8139L37.6615 36.7141C37.9166 38.8576 35.7869 40.5114 33.7345 39.7645L33.7365 39.7607Z" fill="url(#paint0_linear_84_1435)"/>
<path d="M31.1755 22.7346H13.626C13.0211 22.7346 12.4838 23.1119 12.2848 23.6739L5.91699 49.7332C5.54401 50.7906 6.51803 51.829 7.61571 51.5471L11.1909 50.6287C11.7475 50.4858 12.337 50.6877 12.6829 51.1393L14.9072 54.0468C15.5913 54.9404 17.008 54.7213 17.3809 53.6639L21.6944 33.4293C21.9282 32.7681 22.8771 32.7681 23.1109 33.4293L27.4244 53.6639C27.7973 54.7213 29.214 54.9404 29.8981 54.0468L32.1224 51.1393C32.4683 50.6877 33.0578 50.4858 33.6144 50.6287L37.1896 51.5471C38.2873 51.829 39.2612 50.7906 38.8882 49.7332L32.5205 23.6739C32.3215 23.1119 31.7842 22.7346 31.1793 22.7346H31.1755Z" fill="url(#paint1_linear_84_1435)"/>
<path d="M28.7733 54.7766C28.6882 54.7766 28.6032 54.7709 28.5162 54.7557C27.9249 54.6642 27.4553 54.2774 27.2582 53.7192L27.2523 53.6982L22.9409 33.475C22.8404 33.2026 22.5969 33.1035 22.4017 33.1035C22.2065 33.1035 21.963 33.2006 21.8625 33.475L17.549 53.7096L17.5451 53.7192C17.348 54.2774 16.8785 54.6642 16.2871 54.7557C15.6957 54.8471 15.1276 54.6204 14.7681 54.1498L12.5437 51.2422C12.2384 50.844 11.7263 50.6687 11.2354 50.7945L7.66017 51.7129C7.0804 51.8615 6.49288 51.6919 6.08704 51.2575C5.68314 50.8269 5.55752 50.2381 5.74885 49.6837L12.1166 23.6244V23.6168C12.3427 22.9862 12.9476 22.5613 13.626 22.5613H31.1755C31.8538 22.5613 32.4587 22.9862 32.6809 23.6168L32.6867 23.634L39.0525 49.6837C39.2458 50.2381 39.1201 50.8269 38.7143 51.2575C38.3085 51.6919 37.721 51.8615 37.1413 51.7129L33.5661 50.7945C33.0771 50.6687 32.5631 50.844 32.2577 51.2422L30.0333 54.1498C29.726 54.5518 29.2661 54.7766 28.7714 54.7766H28.7733ZM27.5905 53.6182C27.7471 54.0488 28.1105 54.346 28.5704 54.4165C29.0303 54.487 29.4748 54.3117 29.7569 53.944L31.9813 51.0365C32.3717 50.5258 33.0288 50.301 33.6568 50.4611L37.2321 51.3794C37.6843 51.4956 38.1442 51.3623 38.4611 51.025C38.7781 50.6859 38.8766 50.2248 38.722 49.7904L38.7163 49.7732L32.3505 23.7235C32.1746 23.2358 31.7049 22.908 31.1774 22.908H13.6279C13.1022 22.908 12.6307 23.2358 12.4548 23.7235L6.08704 49.7827V49.7904C5.93051 50.2248 6.02913 50.6878 6.34607 51.025C6.66301 51.3642 7.12099 51.4956 7.57514 51.3794L11.1504 50.4611C11.7765 50.2991 12.4355 50.5258 12.8259 51.0365L15.0503 53.944C15.3324 54.3117 15.7749 54.4889 16.2368 54.4165C16.6948 54.346 17.0601 54.0469 17.2167 53.6182L21.5301 33.3836L21.534 33.374C21.6654 33.0025 22.0074 32.7624 22.4075 32.7624C22.8075 32.7624 23.1496 33.0025 23.281 33.374L23.2867 33.395L27.5983 53.6201L27.5905 53.6182Z" fill="url(#paint2_linear_84_1435)"/>
<path d="M26.0624 24.2294C26.9001 22.2354 25.9397 19.9495 23.9173 19.1236C21.8948 18.2977 19.5762 19.2445 18.7385 21.2385C17.9008 23.2324 18.8612 25.5184 20.8836 26.3443C22.9061 27.1703 25.2247 26.2233 26.0624 24.2294Z" fill="white"/>
<defs>
<linearGradient id="paint0_linear_84_1435" x1="7.01899" y1="12.2877" x2="45.5189" y2="36.3963" gradientUnits="userSpaceOnUse">
<stop stop-color="#C623FF"/>
<stop offset="1" stop-color="#8200B0"/>
</linearGradient>
<linearGradient id="paint1_linear_84_1435" x1="36.0145" y1="33.5874" x2="3.89293" y2="44.923" gradientUnits="userSpaceOnUse">
<stop stop-color="#F7E0FF"/>
<stop offset="1" stop-color="#E5B1F8"/>
</linearGradient>
<linearGradient id="paint2_linear_84_1435" x1="36.1788" y1="33.5322" x2="3.72772" y2="44.9831" gradientUnits="userSpaceOnUse">
<stop stop-color="#F4D5FF"/>
<stop offset="1" stop-color="#F6DCFF"/>
</linearGradient>
</defs>
</svg>
