<svg width="75" height="13" viewBox="0 0 75 13" fill="none" xmlns="http://www.w3.org/2000/svg">
<path d="M6.79413 1.39757L7.81348 3.43627C7.95248 3.71427 8.32315 3.99227 8.63204 4.03861L10.4777 4.3475C11.6592 4.54828 11.9372 5.39774 11.0877 6.2472L9.65139 7.69127C9.412 7.93067 9.273 8.40173 9.35022 8.74151L9.7595 10.5254C10.0838 11.9308 9.33477 12.4791 8.09148 11.7455L6.36168 10.7184C6.04506 10.5331 5.53539 10.5331 5.21877 10.7184L3.48124 11.7378C2.23795 12.4714 1.48888 11.9231 1.81322 10.5176L2.2225 8.73379C2.29973 8.40173 2.16073 7.93067 1.92133 7.68355L0.492701 6.25492C-0.356756 5.40546 -0.0787522 4.54828 1.10277 4.35522L2.9484 4.04633C3.2573 3.99228 3.62797 3.72199 3.76697 3.44399L4.78632 1.40529C5.33461 0.293276 6.24584 0.293276 6.79413 1.39757Z" fill="#F8BD4B"/>
<path d="M22.6302 1.39757L23.6495 3.43627C23.7885 3.71427 24.1592 3.99227 24.4681 4.03861L26.3137 4.3475C27.4953 4.54828 27.7733 5.39774 26.9238 6.2472L25.4875 7.69127C25.2481 7.93067 25.1091 8.40173 25.1863 8.74151L25.5956 10.5254C25.9199 11.9308 25.1708 12.4791 23.9275 11.7455L22.1977 10.7184C21.8811 10.5331 21.3714 10.5331 21.0548 10.7184L19.3173 11.7378C18.074 12.4714 17.3249 11.9231 17.6493 10.5176L18.0586 8.73379C18.1358 8.40173 17.9968 7.93067 17.7574 7.68355L16.3288 6.25492C15.4793 5.40546 15.7573 4.54828 16.9388 4.35522L18.7845 4.04633C19.0934 3.99228 19.464 3.72199 19.603 3.44399L20.6224 1.40529C21.1707 0.293276 22.0819 0.293276 22.6302 1.39757Z" fill="#F8BD4B"/>
<path d="M38.4683 1.39757L39.4877 3.43627C39.6267 3.71427 39.9973 3.99227 40.3062 4.03861L42.1519 4.3475C43.3334 4.54828 43.6114 5.39774 42.7619 6.2472L41.3256 7.69127C41.0862 7.93067 40.9472 8.40173 41.0244 8.74151L41.4337 10.5254C41.758 11.9308 41.009 12.4791 39.7657 11.7455L38.0359 10.7184C37.7193 10.5331 37.2096 10.5331 36.893 10.7184L35.1554 11.7378C33.9121 12.4714 33.1631 11.9231 33.4874 10.5176L33.8967 8.73379C33.9739 8.40173 33.8349 7.93067 33.5955 7.68355L32.1669 6.25492C31.3174 5.40546 31.5954 4.54828 32.777 4.35522L34.6226 4.04633C34.9315 3.99228 35.3022 3.72199 35.4412 3.44399L36.4605 1.40529C37.0088 0.293276 37.92 0.293276 38.4683 1.39757Z" fill="#F8BD4B"/>
<path d="M54.3043 1.39757L55.3237 3.43627C55.4627 3.71427 55.8333 3.99227 56.1422 4.03861L57.9879 4.3475C59.1694 4.54828 59.4474 5.39774 58.5979 6.2472L57.1616 7.69127C56.9222 7.93067 56.7832 8.40173 56.8604 8.74151L57.2697 10.5254C57.594 11.9308 56.845 12.4791 55.6017 11.7455L53.8719 10.7184C53.5553 10.5331 53.0456 10.5331 52.729 10.7184L50.9914 11.7378C49.7481 12.4714 48.9991 11.9231 49.3234 10.5176L49.7327 8.73379C49.8099 8.40173 49.6709 7.93067 49.4315 7.68355L48.0029 6.25492C47.1534 5.40546 47.4314 4.54828 48.613 4.35522L50.4586 4.04633C50.7675 3.99228 51.1382 3.72199 51.2772 3.44399L52.2965 1.40529C52.8448 0.293276 53.756 0.293276 54.3043 1.39757Z" fill="#F8BD4B"/>
<path d="M70.1404 1.39757L71.1597 3.43627C71.2987 3.71427 71.6694 3.99227 71.9783 4.03861L73.8239 4.3475C75.0055 4.54828 75.2835 5.39774 74.434 6.2472L72.9976 7.69127C72.7583 7.93067 72.6192 8.40173 72.6965 8.74151L73.1058 10.5254C73.4301 11.9308 72.681 12.4791 71.4377 11.7455L69.7079 10.7184C69.3913 10.5331 68.8816 10.5331 68.565 10.7184L66.8275 11.7378C65.5842 12.4714 64.8351 11.9231 65.1595 10.5176L65.5688 8.73379C65.646 8.40173 65.507 7.93067 65.2676 7.68355L63.839 6.25492C62.9895 5.40546 63.2675 4.54828 64.449 4.35522L66.2947 4.04633C66.6035 3.99228 66.9742 3.72199 67.1132 3.44399L68.1326 1.40529C68.6809 0.293276 69.5921 0.293276 70.1404 1.39757Z" fill="#F8BD4B"/>
</svg>
