<svg width="63" height="47" viewBox="0 0 63 47" fill="none" xmlns="http://www.w3.org/2000/svg">
<path opacity="0.5" d="M45.3197 27.9951V34.2451C45.3197 37.6351 42.5723 40.3804 39.1844 40.3804H6.52L0 46.9004V18.5786C0 15.1887 2.74738 12.4434 6.13528 12.4434H16.6434V21.8598C16.6434 25.2497 19.3888 27.9951 22.7787 27.9951H45.3217H45.3197Z" fill="white"/>
<path d="M22.7691 0.0600586H55.8202C59.2081 0.0600586 61.9555 2.80744 61.9555 6.19534V34.5171L55.4355 27.9971H22.7691C19.3812 27.9971 16.6338 25.2498 16.6338 21.8619V6.19534C16.6338 2.80744 19.3812 0.0600586 22.7691 0.0600586Z" fill="url(#paint0_linear_7_1401)"/>
<path d="M62.0177 34.6625L55.4131 28.0579H22.7729C19.3568 28.0579 16.5771 25.2783 16.5771 21.8622V6.1957C16.5771 2.77961 19.3568 0 22.7729 0H55.824C59.2401 0 62.0197 2.77961 62.0197 6.1957V34.6625H62.0177ZM22.7729 0.120854C19.4232 0.120854 16.698 2.84608 16.698 6.1957V21.8622C16.698 25.2118 19.4232 27.9371 22.7729 27.9371H55.4635L61.8968 34.3704V6.1957C61.8968 2.84608 59.1716 0.120854 55.822 0.120854H22.7708H22.7729Z" fill="url(#paint1_linear_7_1401)"/>
<path d="M50.1874 10.1052H23.91C23.058 10.1052 22.3691 9.4143 22.3691 8.56431C22.3691 7.7123 23.06 7.02344 23.91 7.02344H50.1874C51.0394 7.02344 51.7282 7.71431 51.7282 8.56431C51.7282 9.41632 51.0374 10.1052 50.1874 10.1052Z" fill="white"/>
<path d="M38.4848 17.6027H23.91C23.058 17.6027 22.3691 16.9119 22.3691 16.0619C22.3691 15.2099 23.06 14.521 23.91 14.521H38.4848C39.3368 14.521 40.0257 15.2119 40.0257 16.0619C40.0257 16.9139 39.3348 17.6027 38.4848 17.6027Z" fill="white"/>
<defs>
<linearGradient id="paint0_linear_7_1401" x1="50.9982" y1="2.48718" x2="20.5434" y2="32.515" gradientUnits="userSpaceOnUse">
<stop stop-color="#9B00D2"/>
<stop offset="1" stop-color="#DF86FF"/>
</linearGradient>
<linearGradient id="paint1_linear_7_1401" x1="16.5771" y1="17.3302" x2="62.0177" y2="17.3302" gradientUnits="userSpaceOnUse">
<stop stop-color="#C5FFFF"/>
<stop offset="1" stop-color="#B3D6D6"/>
</linearGradient>
</defs>
</svg>
